<?xml version="1.0" standalone="no"?>
<!DOCTYPE svg PUBLIC "-//W3C//DTD SVG 1.1//EN" "http://www.w3.org/Graphics/SVG/1.1/DTD/svg11.dtd" >
<svg>
<metadata>
Created by FontForge 20090914 at Wed Sep 15 19:07:38 2021
 By www-data
Copyright 2020 The Karantina Project Authors (https://github.com/ronykoch/Karantina)
</metadata>
<defs>
<font id="Karantina-Bold" horiz-adv-x="372" >
  <font-face 
    font-family="Karantina"
    font-weight="700"
    font-stretch="normal"
    units-per-em="1000"
    panose-1="0 0 0 0 0 0 0 0 0 0"
    ascent="800"
    descent="-200"
    x-height="499"
    cap-height="700"
    bbox="-20 -227.999 846 859"
    underline-thickness="50"
    underline-position="-75"
    unicode-range="U+0020-U+FB2B"
  />
<missing-glyph horiz-adv-x="435" 
d="M20 0l1 600h394v-600h-395zM163 504l54 -102l54 102h-108zM263 314l53 -99v199zM119 413v-199l52 100zM149 96h138l-69 131z" />
    <glyph glyph-name=".notdef" horiz-adv-x="435" 
d="M20 0l1 600h394v-600h-395zM163 504l54 -102l54 102h-108zM263 314l53 -99v199zM119 413v-199l52 100zM149 96h138l-69 131z" />
    <glyph glyph-name="space" unicode=" " horiz-adv-x="180" 
 />
    <glyph glyph-name="exclam" unicode="!" horiz-adv-x="153" 
d="M20 171v429h113v-429h-113zM20 0v136h113v-136h-113z" />
    <glyph glyph-name="quotedbl" unicode="&#x22;" horiz-adv-x="285" 
d="M138 467l37 190h110l-37 -190h-110zM0 467l37 190h110l-37 -190h-110z" />
    <glyph glyph-name="numbersign" unicode="#" horiz-adv-x="480" 
d="M87 0l9 138h-76v123h84l4 65h-68v123h76l10 151h113l-10 -151h50l10 151h113l-10 -151h68v-123h-76l-5 -65h61v-123h-69l-9 -138h-112l9 138h-51l-9 -138h-112zM216 261h51l4 65h-50z" />
    <glyph glyph-name="dollar" unicode="$" horiz-adv-x="346" 
d="M126 -40v40.002h-106v211h114v-83c0 -3.33301 1.66699 -5 5 -5h58c3.33301 0 5 1.66699 5 5l1 124c0 3.33301 -1.66699 5 -5 5h-84c-29.333 0 -52.333 8.5 -69 25.5s-25 39.5 -25 67.5v155c0 27.333 8.83301 49.666 26.5 66.999s40.167 26 67.5 26h12v42h95v-42h105v-180
h-114v52c0 3.33301 -1.66699 5 -5 5h-59c-3.33301 0 -5 -1.66699 -5 -5v-85c0 -3.33301 1.66699 -5 5 -5h84c29.333 0 52.333 -8.5 69 -25.5s25 -39.5 25 -67.5v-194c0 -26.667 -8.83301 -48.834 -26.5 -66.501s-40.167 -26.5 -67.5 -26.5h-11v-40h-95z" />
    <glyph glyph-name="percent" unicode="%" horiz-adv-x="560" 
d="M257 549v-115c0 -16.667 -8.83301 -30.167 -26.5 -40.5s-40.167 -15.5 -67.5 -15.5h-49c-27.333 0 -49.833 5.16699 -67.5 15.5s-26.5 23.833 -26.5 40.5v115c0 16.667 8.83301 30.167 26.5 40.5s40.167 15.5 67.5 15.5h49c27.333 0 49.833 -5.16699 67.5 -15.5
s26.5 -23.833 26.5 -40.5zM20 0l376 600h144l-377 -600h-143zM128 444h21c3.33301 0 5 1.66699 5 5v85c0 3.33301 -1.66699 5 -5 5h-21c-3.33301 0 -5 -1.66699 -5 -5v-85c0 -3.33301 1.66699 -5 5 -5zM540 171v-115c0 -16.667 -8.83301 -30.167 -26.5 -40.5
s-40.167 -15.5 -67.5 -15.5h-49c-27.333 0 -49.833 5.16699 -67.5 15.5s-26.5 23.833 -26.5 40.5v115c0 16.667 8.83301 30.167 26.5 40.5s40.167 15.5 67.5 15.5h49c27.333 0 49.833 -5.16699 67.5 -15.5s26.5 -23.833 26.5 -40.5zM411 66h21c3.33301 0 5 1.66699 5 5v85
c0 3.33301 -1.66699 5 -5 5h-21c-3.33301 0 -5 -1.66699 -5 -5v-85c0 -3.33301 1.66699 -5 5 -5z" />
    <glyph glyph-name="ampersand" unicode="&#x26;" horiz-adv-x="393" 
d="M343 331l-44 -182.002l84 -149h-123c-3.33301 5.33301 -6.66602 11 -9.99902 17c-15.333 -11.333 -34.333 -17 -57 -17h-79c-28 0 -50.667 8.5 -68 25.5s-26 39.5 -26 67.5v179c0 36.667 14.333 63.334 43 80.001l-17 27
c-4.66699 8.66699 -7.83398 15.834 -9.50098 21.501s-2.5 12.834 -2.5 21.501v85c0 27.333 8.5 49.666 25.5 66.999s39.833 26 68.5 26h87c28 0 50.667 -8.5 68 -25.5s26 -39.5 26 -67.5v-144h-113v109c0 3.33301 -1.66699 5 -5 5h-29c-3.33301 0 -5 -1.66699 -5 -5v-71
l62 -110l10 40h114zM148 122.998h25c3.33301 0 5.33301 1.66699 6 5l3 13l-19.5 35.5l-19.5 35.5v-84c0 -3.33301 1.66699 -5 5 -5z" />
    <glyph glyph-name="quotesingle" unicode="'" horiz-adv-x="147" 
d="M0 467l37 190h110l-37 -190h-110z" />
    <glyph glyph-name="parenleft" unicode="(" horiz-adv-x="166" 
d="M186 -37v-93h-92c-27.333 0 -49.833 8.83301 -67.5 26.5s-26.5 39.834 -26.5 66.501v677c-0 27.333 8.83301 49.666 26.5 66.999s40.167 26 67.5 26h92v-93h-48c-3.33301 0 -5 -1.66699 -5 -5v-667c0 -3.33301 1.66699 -5 5 -5h48z" />
    <glyph glyph-name="parenright" unicode=")" horiz-adv-x="166" 
d="M-20 -37h48c3.33301 0 5 1.66699 5 5v667c0 3.33301 -1.66699 5 -5 5h-48v93h92c27.333 0 49.833 -8.66699 67.5 -26s26.5 -39.666 26.5 -66.999v-677c0 -26.667 -8.83301 -48.834 -26.5 -66.501s-40.167 -26.5 -67.5 -26.5h-92v93z" />
    <glyph glyph-name="asterisk" unicode="*" horiz-adv-x="363" 
d="M134 281v76l48 28l-48 28v-56l-66 -38l-48 83l66 39l-66 38l48 83l65 -38v-56l49 28l-49 28v76h96v-76l-47 -28l47 -28v56l66 38l48 -83l-66 -38l66 -39l-48 -83l-65 38v56l-48 -28l48 -28v-76h-96z" />
    <glyph glyph-name="plus" unicode="+" horiz-adv-x="320" 
d="M98 161v80h-78v121h78v79h124v-79h78v-121h-78v-80h-124z" />
    <glyph glyph-name="comma" unicode="," horiz-adv-x="152" 
d="M10 -63l32 156h100l-32 -156h-100z" />
    <glyph glyph-name="hyphen" unicode="-" horiz-adv-x="274" 
d="M20 241v120l234 1v-121h-234z" />
    <glyph glyph-name="period" unicode="." horiz-adv-x="143" 
d="M20 0v103h103v-103h-103z" />
    <glyph glyph-name="slash" unicode="/" horiz-adv-x="270" 
d="M10 -67l107 757h143l-107 -757h-143z" />
    <glyph glyph-name="zero" unicode="0" horiz-adv-x="350" 
d="M236 604c28 0 50.667 -8.5 68 -25.5s26 -39.5 26 -67.5v-418c0 -28 -8.66699 -50.5 -26 -67.5s-40 -25.5 -68 -25.5h-122c-28 0 -50.667 8.5 -68 25.5s-26 39.5 -26 67.5v418c0 28 8.66699 50.5 26 67.5s40 25.5 68 25.5h122zM156 138c0 -3.33301 1.66699 -5 5 -5h28
c3.33301 0 5 1.66699 5 5v328c0 3.33301 -1.66699 5 -5 5h-28c-3.33301 0 -5 -1.66699 -5 -5v-328z" />
    <glyph glyph-name="one" unicode="1" horiz-adv-x="243" 
d="M24 0v133h31v334h-35l22 133h149v-467h32v-133h-199z" />
    <glyph glyph-name="two" unicode="2" horiz-adv-x="307" 
d="M20 278c0 28 8.66699 50.5 26 67.5s40 25.5 68 25.5h32c3.33301 0 5 1.66699 5 5v86c0 3.33301 -1.66699 5 -5 5h-126v133h173c28 0 50.667 -8.5 68 -25.5s26 -39.5 26 -67.5v-176c0 -28 -8.66699 -50.5 -26 -67.5s-40 -25.5 -68 -25.5h-32c-3.33301 0 -5 -1.66699 -5 -5
v-100h131v-133h-267v278z" />
    <glyph glyph-name="three" unicode="3" horiz-adv-x="307" 
d="M20 600h173c28 0 50.667 -8.5 68 -25.5s26 -39.5 26 -67.5v-414c0 -28 -8.66699 -50.5 -26 -67.5s-40 -25.5 -68 -25.5h-173v133h126c3.33301 0 5 1.66699 5 5v101h-101v133h101v90c0 3.33301 -1.66699 5 -5 5h-126v133z" />
    <glyph glyph-name="four" unicode="4" horiz-adv-x="383" 
d="M373 133l0.00195312 -133h-199v133h31v41h-81c-38.667 0 -68.334 12.167 -89.001 36.5s-28.334 56.5 -23.001 96.5l40 293h136l-34 -293h51v293h136v-293h32v-133h-32v-41h32z" />
    <glyph glyph-name="five" unicode="5" horiz-adv-x="307" 
d="M20 0v133h126c3.33301 0 5 1.66699 5 5v117c0 3.33301 -1.66699 5 -5 5h-126v340h267v-133h-131v-74h37c28 0 50.667 -8.5 68 -25.5s26 -39.5 26 -67.5v-207c0 -28 -8.66699 -50.5 -26 -67.5s-40 -25.5 -68 -25.5h-173z" />
    <glyph glyph-name="six" unicode="6" horiz-adv-x="340" 
d="M330 424l-136 15.002v23c0 3.33301 -1.66699 5 -5 5h-28c-3.33301 0 -5 -1.66699 -5 -5v-55h80c28 0 50.667 -8.33301 68 -25s26 -39.334 26 -68.001v-221c0 -28 -8.66699 -50.5 -26 -67.5s-40 -25.5 -68 -25.5h-122c-27.333 0 -49.833 8.5 -67.5 25.5
s-26.5 39.5 -26.5 67.5v414c0 28 8.66699 50.5 26 67.5s40 25.5 68 25.5h122c28 0 50.667 -8.33301 68 -25s26 -39.334 26 -68.001v-83zM161 274.002c-3.33301 0 -5 -1.66699 -5 -5v-131c0 -3.33301 1.66699 -5 5 -5h28c3.33301 0 5 1.66699 5 5v131
c0 3.33301 -1.66699 5 -5 5h-28z" />
    <glyph glyph-name="seven" unicode="7" horiz-adv-x="319" 
d="M309 372v-133h-53l-37 -239h-126l33 239h-84v133h102l13 95h-147v133h169c39.333 0 69.333 -12.167 90 -36.5s28 -56.5 22 -96.5l-15 -95h33z" />
    <glyph glyph-name="eight" unicode="8" horiz-adv-x="350" 
d="M236 608c28 0 50.667 -8.5 68 -25.5s26 -39.5 26 -67.5v-140c0 -9.33301 -1 -18 -3 -26c2 -8.66699 3 -17.667 3 -27v-229c0 -28 -8.66699 -50.5 -26 -67.5s-40 -25.5 -68 -25.5h-122c-28 0 -50.667 8.5 -68 25.5s-26 39.5 -26 67.5v229c0 9.33301 1 18 3 26
c-2 8.66699 -3 17.667 -3 27v140c0 28 8.66699 50.5 26 67.5s40 25.5 68 25.5h122zM156 420c0 -3.33301 1.66699 -5 5 -5h28c3.33301 0 5 1.66699 5 5v47c0 3.33301 -1.66699 5 -5 5h-28c-3.33301 0 -5 -1.66699 -5 -5v-47zM156 138c0 -3.33301 1.66699 -5 5 -5h28
c3.33301 0 5 1.66699 5 5v136c0 3.33301 -1.66699 5 -5 5h-28c-3.33301 0 -5 -1.66699 -5 -5v-136z" />
    <glyph glyph-name="nine" unicode="9" horiz-adv-x="350" 
d="M20 176l136 -15.002v-23c0 -3.33301 1.66699 -5 5 -5h28c3.33301 0 5 1.66699 5 5v55h-80c-28 0 -50.667 8.33301 -68 25s-26 39.334 -26 68.001v221c0 28 8.66699 50.5 26 67.5s40 25.5 68 25.5h122c27.333 0 49.833 -8.5 67.5 -25.5s26.5 -39.5 26.5 -67.5v-414
c0 -28 -8.66699 -50.5 -26 -67.5s-40 -25.5 -68 -25.5h-122c-28 0 -50.667 8.33301 -68 25s-26 39.334 -26 68.001v83zM161 466.998c-3.33301 0 -5 -1.66699 -5 -5v-131c0 -3.33301 1.66699 -5 5 -5h28c3.33301 0 5 1.66699 5 5v131c0 3.33301 -1.66699 5 -5 5h-28z" />
    <glyph glyph-name="colon" unicode=":" horiz-adv-x="153" 
d="M20 331v136h113v-136h-113zM20 133v136h113v-136h-113z" />
    <glyph glyph-name="semicolon" unicode=";" horiz-adv-x="185" 
d="M52 331v136h113v-136h-113zM20 113l32 156h113l-32 -156h-113z" />
    <glyph glyph-name="less" unicode="&#x3c;" horiz-adv-x="280" 
d="M260 140l-240 103v112l240 103v-120l-91 -39l91 -39v-120z" />
    <glyph glyph-name="equal" unicode="=" horiz-adv-x="280" 
d="M20 314v120l240 1v-121h-240zM20 169v120l240 1v-121h-240z" />
    <glyph glyph-name="greater" unicode="&#x3e;" horiz-adv-x="280" 
d="M20 140v120l91 39l-91 39v120l240 -103v-112z" />
    <glyph glyph-name="question" unicode="?" horiz-adv-x="307" 
d="M134 400l-114 0.000976562v200h173c27.333 0 49.833 -8.66699 67.5 -26s26.5 -39.666 26.5 -66.999v-156c0 -24.667 -8.5 -45.834 -25.5 -63.501s-36.167 -26.834 -57.5 -27.501c-3.33301 0 -5 -2 -5 -6v-83h-113v87c0 26 5.83301 48 17.5 66s33.167 27 64.5 27
c3.33301 0 5 1.66699 5 5v106c0 3.33301 -1.66699 5 -5 5h-34v-67zM86 0.000976562v136h113v-136h-113z" />
    <glyph glyph-name="at" unicode="@" horiz-adv-x="660" 
d="M360 475h135.999v-160h16c3.33301 0 5 1.66699 5 5v37l-1 144c0 3.33301 -1.66699 5 -5 5h-362c-3.33301 0 -5 -1.66699 -5 -5v-373c0 -3.33301 1.66699 -5 5 -5h363c3.33301 0 5 1.66699 5 5v39h122v-74c0 -28 -8.66699 -50.5 -26 -67.5s-40 -25.5 -68 -25.5h-431
c-28 -0 -50.667 7.33301 -68 22s-26 34 -26 58v456c0 28 8.66699 50.5 26 67.5s40 25.5 68 25.5h432c28 0 50.667 -8.5 68 -25.5s26 -39.5 26 -67.5l-1 -157h1v-54c0 -45.333 -8.83301 -80.5 -26.5 -105.5s-46.5 -37.5 -86.5 -37.5h-2l-29 43v-80h-136v53l-36 -53h-16
c-51.333 0 -88.166 11.167 -110.499 33.5s-33.5 58.833 -33.5 109.5v44c0 51.333 11 88 33 110s59.333 33 112 33c19.333 0 36.333 -3.33301 51 -10v10zM304.999 342c-3.33301 0 -5 -1.66699 -5 -5v-54c0 -3.33301 1.66699 -5 5 -5h55v64h-55z" />
    <glyph glyph-name="A" unicode="A" horiz-adv-x="452" 
d="M20 0l83 567h-21l14 133h233l103 -700h-135l-15 100h-112l-15 -100h-135zM189 233h74l-37 250z" />
    <glyph glyph-name="B" unicode="B" horiz-adv-x="399" 
d="M34 0v567h-19l14 133h191c51.333 0 88.166 -11.167 110.499 -33.5s33.5 -58.833 33.5 -109.5v-131c0 -20 -1.66699 -37.667 -5 -53c16.667 -22 25 -55.333 25 -100v-130c0 -50.667 -11.167 -87.167 -33.5 -109.5s-59.166 -33.5 -110.499 -33.5h-206zM223 416
c3.33301 0 5 1.66699 5 5v141c0 3.33301 -1.66699 5 -5 5h-53v-151h53zM248 278c0 3.33301 -1.66699 5 -5 5h-73v-150h73c3.33301 0 5 1.66699 5 5v140z" />
    <glyph glyph-name="C" unicode="C" 
d="M352 290v-155c0 -50.667 -11.167 -87.167 -33.5 -109.5s-59.166 -33.5 -110.499 -33.5h-44c-51.333 0 -88.166 11.167 -110.499 33.5s-33.5 58.833 -33.5 109.5v430c0 51.333 11.167 88 33.5 110s59.166 33 110.499 33h44c51.333 0 88.166 -11 110.499 -33
s33.5 -58.667 33.5 -110v-165l-136 15v155c0 3.33301 -1.66699 5 -5 5h-50c-3.33301 0 -5 -1.66699 -5 -5v-440c0 -3.33301 1.66699 -5 5 -5h50c3.33301 0 5 1.66699 5 5v160h136z" />
    <glyph glyph-name="D" unicode="D" horiz-adv-x="391" 
d="M371 143c0 -50.667 -11.167 -87.167 -33.5 -109.5s-59.166 -33.5 -110.499 -33.5h-188v567h-19l14 133h193c51.333 0 88.166 -11 110.499 -33s33.5 -58.667 33.5 -110v-414zM230 133c3.33301 0 5 1.66699 5 5v424c0 3.33301 -1.66699 5 -5 5h-55v-434h55z" />
    <glyph glyph-name="E" unicode="E" horiz-adv-x="340" 
d="M39 0v567h-19l14 133h286l-8 -133h-137v-150h123l-8 -133h-115v-151h145l-8 -133h-273z" />
    <glyph glyph-name="F" unicode="F" horiz-adv-x="340" 
d="M39 0v567h-19l14 133h286l-8 -133h-137v-150h123l-8 -133h-115v-284h-136z" />
    <glyph glyph-name="G" unicode="G" horiz-adv-x="382" 
d="M186 283l8 133h168v-277c0 -50.667 -11.167 -87.167 -33.5 -109.5s-59.166 -33.5 -110.499 -33.5h-54c-51.333 0 -88.166 11.167 -110.499 33.5s-33.5 58.833 -33.5 109.5v422c0 51.333 11.167 88 33.5 110s59.166 33 110.499 33h54c51.333 0 88.166 -11 110.499 -33
s33.5 -58.667 33.5 -110v-99l-136 15v89c0 3.33301 -1.66699 5 -5 5h-60c-3.33301 0 -5 -1.66699 -5 -5v-432c0 -3.33301 1.66699 -5 5 -5h60c3.33301 0 5 1.66699 5 5v149h-40z" />
    <glyph glyph-name="H" unicode="H" horiz-adv-x="386" 
d="M39 0v567h-19l14 133h141v-304h55v304h136v-700h-136v263h-55v-263h-136z" />
    <glyph glyph-name="I" unicode="I" horiz-adv-x="195" 
d="M39 0v567h-19l14 133h141v-700h-136z" />
    <glyph glyph-name="J" unicode="J" horiz-adv-x="342" 
d="M322 139c0 -50.667 -11.1689 -87.167 -33.502 -109.5s-59.166 -33.5 -110.499 -33.5h-14c-51.333 0 -88.166 11.167 -110.499 33.5s-33.5 58.833 -33.5 109.5v151h136v-156c0 -3.33301 1.66699 -5 5 -5h20c3.33301 0 5 1.66699 5 5v433h-90l14 133h212v-561z" />
    <glyph glyph-name="K" unicode="K" horiz-adv-x="414" 
d="M39 0v567h-19l14 133h141v-183l86 183h130l-137 -292l155 -408h-130l-104 274v-274h-136z" />
    <glyph glyph-name="L" unicode="L" horiz-adv-x="386" 
d="M39 -1v567h-19l14 133h141v-566h191l-8 -133h-183v-1h-136z" />
    <glyph glyph-name="M" unicode="M" horiz-adv-x="532" 
d="M39 0v567h-19l14 133h94l99 1l48 -378l49 377h188v-700h-136v418l-53 -318h-95l-53 318v-418h-136z" />
    <glyph glyph-name="N" unicode="N" horiz-adv-x="445" 
d="M39 0v567h-19l14 133h141l114 -380v380h136v-700h-136l-114 380v-380h-136z" />
    <glyph glyph-name="O" unicode="O" 
d="M352 139c0 -50.667 -11.167 -87.167 -33.5 -109.5s-59.166 -33.5 -110.499 -33.5h-44c-51.333 0 -88.166 11.167 -110.499 33.5s-33.5 58.833 -33.5 109.5v422c0 51.333 11.167 88 33.5 110s59.166 33 110.499 33h44c51.333 0 88.166 -11 110.499 -33
s33.5 -58.667 33.5 -110v-422zM161 571c-3.33301 0 -5 -1.66699 -5 -5v-432c0 -3.33301 1.66699 -5 5 -5h50c3.33301 0 5 1.66699 5 5v432c0 3.33301 -1.66699 5 -5 5h-50z" />
    <glyph glyph-name="P" unicode="P" horiz-adv-x="381" 
d="M39 0v567h-19l14 133h183c51.333 0 88.166 -11.167 110.499 -33.5s33.5 -58.833 33.5 -109.5v-228c0 -50.667 -11.167 -87.167 -33.5 -109.5s-59.166 -33.5 -110.499 -33.5h-42v-186h-136zM220 567h-45v-248h45c3.33301 0 5 1.66699 5 5v238c0 3.33301 -1.66699 5 -5 5z
" />
    <glyph glyph-name="Q" unicode="Q" 
d="M343 -12l-19.9971 -96.002h-72c-18.667 0 -35.834 4.83301 -51.501 14.5s-28.167 22.5 -37.5 38.5s-14 33 -14 51c-45.333 2.66699 -78 15.167 -98 37.5s-30 57.5 -30 105.5v422c0 51.333 11.167 88 33.5 110s59.166 33 110.499 33h44c51.333 0 88.166 -11 110.499 -33
s33.5 -58.667 33.5 -110v-422c0 -43.333 -7.83301 -76.166 -23.5 -98.499s-41.5 -36.166 -77.5 -41.499v-11h92zM161.003 570.998c-3.33301 0 -5 -1.66699 -5 -5v-432c0 -3.33301 1.66699 -5 5 -5h50c3.33301 0 5 1.66699 5 5v432c0 3.33301 -1.66699 5 -5 5h-50z" />
    <glyph glyph-name="R" unicode="R" horiz-adv-x="400" 
d="M34 0l0.000976562 567h-19l14 133h183c51.333 0 88.166 -11.167 110.499 -33.5s33.5 -58.833 33.5 -109.5v-228c0 -51.333 -11 -88 -33 -110l62 -219h-136l-52 186h-27v-186h-136zM215.001 567h-45v-248h45c3.33301 0 5 1.66699 5 5v238c0 3.33301 -1.66699 5 -5 5z" />
    <glyph glyph-name="S" unicode="S" horiz-adv-x="342" 
d="M151 220v-90c0 -3.33301 1.66699 -5 5 -5h29c3.33301 0 5 1.66699 5 5l1 133l-113 49c-25.333 11.333 -42.166 23 -50.499 35s-12.5 30.333 -12.5 55v163c0 51.333 11 88 33 110s57.667 33 107 33v0h42v0c46.667 -2 80 -14.167 100 -36.5s30 -57.833 30 -106.5v-125
l-136 15v115c0 3.33301 -1.66699 5 -5 5h-30c-3.33301 0 -5 -1.66699 -5 -5v-147l113 -49c25.333 -10.667 42.166 -22.167 50.499 -34.5s12.5 -30.833 12.5 -55.5v-149c0 -48.667 -10 -84.167 -30 -106.5s-53.333 -34.5 -100 -36.5v0h-40v0c-50.667 0 -87 11.167 -109 33.5
s-33 58.833 -33 109.5v85h136z" />
    <glyph glyph-name="T" unicode="T" horiz-adv-x="361" 
d="M113 0v567h-93v133h321v-133h-92v-567h-136z" />
    <glyph glyph-name="U" unicode="U" horiz-adv-x="391" 
d="M376 139c0 -50.667 -11.1689 -87.167 -33.502 -109.5s-59.166 -33.5 -110.499 -33.5h-54c-51.333 0 -88.166 11.167 -110.499 33.5s-33.5 58.833 -33.5 109.5v428h-19l14 133h141v-566c0 -3.33301 1.66699 -5 5 -5h60c3.33301 0 5 1.66699 5 5v566h136v-561z" />
    <glyph glyph-name="V" unicode="V" horiz-adv-x="452" 
d="M123 0l-103 700h135l71 -498l71 498h135l-103 -700h-206z" />
    <glyph glyph-name="W" unicode="W" horiz-adv-x="521" 
d="M25 0v700h136v-436l56 336h95l53 -318v418h136v-700h-188l-49 377l-48 -377h-191z" />
    <glyph glyph-name="X" unicode="X" horiz-adv-x="409" 
d="M20 0l95 350l-95 350h135l50 -237l49 237h135l-95 -350l95 -350h-135l-49 237l-50 -237h-135z" />
    <glyph glyph-name="Y" unicode="Y" horiz-adv-x="409" 
d="M137 0v269l-117 431h135l50 -237l49 237h135l-117 -431v-269h-135z" />
    <glyph glyph-name="Z" unicode="Z" horiz-adv-x="340" 
d="M320 128v-133h-300v101c0 8 0.666992 17 2 27s3.66602 20 6.99902 30l153 409c2 3.33301 1 5 -3 5h-159v133h300v-101c0 -8 -0.666992 -17 -2 -27s-3.66602 -20 -6.99902 -30l-153 -409c-0.666992 -3.33301 0.333008 -5 3 -5h159z" />
    <glyph glyph-name="bracketleft" unicode="[" horiz-adv-x="177" 
d="M11 -130v863h166v-83h-53v-697h53v-83h-166z" />
    <glyph glyph-name="backslash" unicode="\" horiz-adv-x="260" 
d="M117 -37l-107 677h123l107 -677h-123z" />
    <glyph glyph-name="bracketright" unicode="]" horiz-adv-x="177" 
d="M0 -130v83h53v697h-53v83h166v-863h-166z" />
    <glyph glyph-name="asciicircum" unicode="^" horiz-adv-x="385" 
d="M20 424l110 176h125l110 -176h-125l-47 76l-48 -76h-125z" />
    <glyph glyph-name="underscore" unicode="_" horiz-adv-x="320" 
d="M20 0v103h280v-103h-280z" />
    <glyph glyph-name="grave" unicode="`" horiz-adv-x="183" 
d="M56 720l-36 106h107l36 -106h-107z" />
    <glyph glyph-name="a" unicode="a" horiz-adv-x="382" 
d="M164 0c-51.333 0 -88.167 11.167 -110.5 33.5s-33.5 58.833 -33.5 109.5v214c0 51.333 10.833 88 32.5 110s57.5 33 107.5 33h9c17.333 0 33 -3 47 -9v9h136v-367h10l10 -133h-156v53l-36 -53h-16zM160.999 367c-3.33301 0 -5 -1.66699 -5 -5v-224
c0 -3.33301 1.66699 -5 5 -5h55v234h-55z" />
    <glyph glyph-name="b" unicode="b" horiz-adv-x="382" 
d="M30 0l0.000976562 567h-20l10 133h146v-253l36 53h16c51.333 0 88.166 -11 110.499 -33s33.5 -58.667 33.5 -110v-214c0 -50.667 -10.833 -87.167 -32.5 -109.5s-57.5 -33.5 -107.5 -33.5h-9c-17.333 0 -33 3 -47 9v-9h-136zM221.001 133c3.33301 0 5 1.66699 5 5v224
c0 3.33301 -1.66699 5 -5 5h-55v-234h55z" />
    <glyph glyph-name="c" unicode="c" 
d="M20 135v222c0 51.333 11.167 88 33.5 110s59.166 33 110.499 33h44c51.333 0 88.166 -11 110.499 -33s33.5 -58.667 33.5 -110v-93l-136 15v83c0 3.33301 -1.66699 5 -5 5h-50c-3.33301 0 -5 -1.66699 -5 -5v-232c0 -3.33301 1.66699 -5 5 -5h50c3.33301 0 5 1.66699 5 5
v89h136v-84c0 -50.667 -11.167 -87.167 -33.5 -109.5s-59.166 -33.5 -110.499 -33.5h-44c-51.333 0 -88.166 11 -110.499 33s-33.5 58.667 -33.5 110z" />
    <glyph glyph-name="d" unicode="d" horiz-adv-x="382" 
d="M164 0c-51.333 0 -88.167 11.167 -110.5 33.5s-33.5 58.833 -33.5 109.5v214c0 51.333 10.833 88 32.5 110s57.5 33 107.5 33h9c17.333 0 33 -3 47 -9v76h-20l10 133h146v-567h10l10 -133h-156v53l-36 -53h-16zM160.999 367c-3.33301 0 -5 -1.66699 -5 -5v-224
c0 -3.33301 1.66699 -5 5 -5h55v234h-55z" />
    <glyph glyph-name="e" unicode="e" 
d="M20 135v222c0 51.333 11.167 88 33.5 110s59.166 33 110.499 33h44c51.333 0 88.166 -11 110.499 -33s33.5 -58.667 33.5 -110v-173h-196v-54c0 -3.33301 1.66699 -5 5 -5h50c3.33301 0 5 1.66699 5 5v33h136v-28c0 -50.667 -11.167 -87.167 -33.5 -109.5
s-59.166 -33.5 -110.499 -33.5h-44c-51.333 0 -88.166 11 -110.499 33s-33.5 58.667 -33.5 110zM216 362c0 3.33301 -1.66699 5 -5 5h-50c-3.33301 0 -5 -1.66699 -5 -5v-65h60v65z" />
    <glyph glyph-name="f" unicode="f" horiz-adv-x="253" 
d="M10 377l10 123h31v107c0 28 8.66699 50.5 26 67.5s40 25.5 68 25.5h98v-133h-56v-67h46l-10 -123h-36v-377h-136v377h-41z" />
    <glyph glyph-name="g" unicode="g" 
d="M156 -13l-0.00292969 -21.001c0 -3.33301 1.66699 -5 5 -5h50c3.33301 0 5 1.66699 5 5v72l-26 -38h-26c-51.333 0 -88.166 11.167 -110.499 33.5s-33.5 58.833 -33.5 109.5v214c0 51.333 10.833 88 32.5 110s57.5 33 107.5 33h9c17.333 0 33 -3 47 -9v9h136v-509
c0 -50.667 -11.167 -87.167 -33.5 -109.5s-59.166 -33.5 -110.499 -33.5h-44c-49.333 0 -85.666 11.333 -108.999 34s-35 57.334 -35 104.001v1h136zM160.997 366.999c-3.33301 0 -5 -1.66699 -5 -5v-224c0 -3.33301 1.66699 -5 5 -5h55v234h-55z" />
    <glyph glyph-name="h" unicode="h" horiz-adv-x="392" 
d="M30 0l0.000976562 567h-20l10 133h146v-253l36 53h16c51.333 0 88.166 -11 110.499 -33s33.5 -58.667 33.5 -110v-224h20l-10 -133h-146v362c0 3.33301 -1.66699 5 -5 5h-55v-367h-136z" />
    <glyph glyph-name="i" unicode="i" horiz-adv-x="192" 
d="M36 540l10 133h126v-133h-136zM36 0v367h-16l10 133h142v-500h-136z" />
    <glyph glyph-name="j" unicode="j" horiz-adv-x="192" 
d="M36 540v133h126l10 -133h-136zM-20 -152v132h56v387h-17l10 133h143v-559c0 -28 -8.66699 -50.5 -26 -67.5s-40 -25.5 -68 -25.5h-98z" />
    <glyph glyph-name="k" unicode="k" horiz-adv-x="367" 
d="M26 0v567h-16l10 133h142v-326l62 126h133l-106 -215l116 -285h-133l-72 177v-177h-136z" />
    <glyph glyph-name="l" unicode="l" horiz-adv-x="212" 
d="M36 0v567h-16l10 133h142v-567h20l10 -133h-166z" />
    <glyph glyph-name="m" unicode="m" horiz-adv-x="588" 
d="M30 0l0.000976562 367h-20l10 133h146v-53l36 53h16c69.333 0 113 -21.667 131 -65l44 65h21c51.333 0 88.166 -11 110.499 -33s33.5 -58.667 33.5 -110v-224h20l-10 -133h-146v362c0 3.33301 -1.66699 5 -5 5h-55v-10v-357h-136v362c0 3.33301 -1.66699 5 -5 5h-55v-367
h-136z" />
    <glyph glyph-name="n" unicode="n" horiz-adv-x="402" 
d="M30 0l0.000976562 367h-20l10 133h146v-53l36 53h16c51.333 0 88.166 -11 110.499 -33s33.5 -58.667 33.5 -110v-224h20l-10 -133h-146v362c0 3.33301 -1.66699 5 -5 5h-55v-367h-136z" />
    <glyph glyph-name="o" unicode="o" 
d="M216 362c0 3.33301 -1.66699 5 -5 5h-50c-3.33301 0 -5 -1.66699 -5 -5v-232c0 -3.33301 1.66699 -5 5 -5h50c3.33301 0 5 1.66699 5 5v232zM20 135v222c0 51.333 11.167 88 33.5 110s59.166 33 110.499 33h44c51.333 0 88.166 -11 110.499 -33s33.5 -58.667 33.5 -110
v-222c0 -50.667 -11.167 -87.167 -33.5 -109.5s-59.166 -33.5 -110.499 -33.5h-44c-51.333 0 -88.166 11 -110.499 33s-33.5 58.667 -33.5 110z" />
    <glyph glyph-name="p" unicode="p" horiz-adv-x="382" 
d="M30 -132l0.000976562 499h-20l10 133h146v-53l36 53h16c51.333 0 88.166 -11 110.499 -33s33.5 -58.667 33.5 -110v-214c0 -50.667 -10.833 -87.167 -32.5 -109.5s-57.5 -33.5 -107.5 -33.5h-9c-17.333 0 -33 3 -47 9v-141h-136zM221.001 133c3.33301 0 5 1.66699 5 5
v224c0 3.33301 -1.66699 5 -5 5h-55v-234h55z" />
    <glyph glyph-name="q" unicode="q" horiz-adv-x="387" 
d="M159 0c-51.333 0 -88.167 11.167 -110.5 33.5s-33.5 58.833 -33.5 109.5v214c0 51.333 10.833 88 32.5 110s57.5 33 107.5 33h9c17.333 0 33 -3 47 -9v9h136v-499h20l10 -133h-166v185l-36 -53h-16zM155.999 367c-3.33301 0 -5 -1.66699 -5 -5v-224
c0 -3.33301 1.66699 -5 5 -5h55v234h-55z" />
    <glyph glyph-name="r" unicode="r" horiz-adv-x="303" 
d="M30 0v367h-20l10 133h146v-57l36 57h81v-153h-117v-347h-136z" />
    <glyph glyph-name="s" unicode="s" horiz-adv-x="382" 
d="M20 190l136 -10.001v-42c0 -3.33301 1.66699 -5 5 -5h60c3.33301 0 5 1.66699 5 5v30l-150 55c-10.667 3.33301 -22.667 10.333 -36 21s-20 27.334 -20 50.001v117c0 28.667 8.66699 51.334 26 68.001s40 25 68 25h104c51.333 0 88.166 -11 110.499 -33
s33.5 -58.667 33.5 -110v-47l-136 10v42c0 3.33301 -1.66699 5 -5 5h-60c-3.33301 0 -5 -1.66699 -5 -5v-29l150 -55c10.667 -3.33301 22.667 -10.333 36 -21s20 -27.334 20 -50.001v-118c0 -28 -8.66699 -50.5 -26 -67.5s-40 -25.5 -68 -25.5h-104
c-51.333 0 -88.166 11.167 -110.499 33.5s-33.5 58.833 -33.5 109.5v47z" />
    <glyph glyph-name="t" unicode="t" horiz-adv-x="253" 
d="M243 133v-133h-98c-28 0 -50.667 8.5 -68 25.5s-26 39.5 -26 67.5v284h-41l10 123h31v67h-21l10 133h146v-200h47l-10 -123h-37v-244h57z" />
    <glyph glyph-name="u" unicode="u" horiz-adv-x="392" 
d="M226 0l-0.000976562 53l-36 -53h-16c-51.333 0 -88.166 11.167 -110.499 33.5s-33.5 58.833 -33.5 109.5v224h-20l10 133h146v-362c0 -3.33301 1.66699 -5 5 -5h55v367h136v-367h10l10 -133h-156z" />
    <glyph glyph-name="v" unicode="v" horiz-adv-x="368" 
d="M116 0l-96 500h116l48 -277l48 277h116l-96 -500h-136z" />
    <glyph glyph-name="w" unicode="w" horiz-adv-x="588" 
d="M558 500l-0.000976562 -367h10l10 -133h-156v53l-36 -53h-16c-69.333 0 -113 21.667 -131 65l-44 -65h-21c-51.333 0 -88.166 11.167 -110.499 33.5s-33.5 58.833 -33.5 109.5v224h-20l10 133h146v-362c0 -3.33301 1.66699 -5 5 -5h55v10v357h136v-362
c0 -3.33301 1.66699 -5 5 -5h55v367h136z" />
    <glyph glyph-name="x" unicode="x" horiz-adv-x="389" 
d="M20 0l87 250l-87 250h135l40 -160l39 160h135l-87 -250l87 -250h-135l-39 160l-40 -160h-135z" />
    <glyph glyph-name="y" unicode="y" horiz-adv-x="392" 
d="M184 -1c-51.333 0 -88.1689 10.832 -110.502 32.499s-33.5 57.834 -33.5 108.501v226h-20l10 133h146v-367h60v367h136v-509c0 -50.667 -11.167 -87.167 -33.5 -109.5s-59.166 -33.5 -110.499 -33.5h-44c-49.333 0 -85.666 11.333 -108.999 34s-35 57.667 -35 105v1h136
v-27h60v92l-36 -53h-16z" />
    <glyph glyph-name="z" unicode="z" horiz-adv-x="332" 
d="M20 0v113c0 8 1 16.167 3 24.5s5 15.5 9 21.5l133 207h-145l10 133h282v-113c0 -8 -1 -16.167 -3 -24.5s-5 -15.5 -9 -21.5l-133 -207h145l-10 -133h-282z" />
    <glyph glyph-name="braceleft" unicode="{" horiz-adv-x="278" 
d="M278 -130l-52 0.000976562c-32.667 0 -56.334 2.66699 -71.001 8s-23.834 14.666 -27.501 27.999s-5.5 32.333 -5.5 57v90c0 23.333 -1.16699 46.5 -3.5 69.5s-7 44 -14 63s-17.167 34.333 -30.5 46s-31.333 17.5 -54 17.5v105c22.667 0 40.667 5.83301 54 17.5
s23.5 27 30.5 46s11.667 40.167 14 63.5s3.5 46.333 3.5 69v90c0 24.667 1.83301 43.667 5.5 57s12.834 22.666 27.501 27.999s38.334 8 71.001 8h52v-103h-53v-169c0 -30.667 -5 -58 -15 -82s-22.167 -42.5 -36.5 -55.5s-28.166 -19.167 -41.499 -18.5v-7
c13.333 0 27.166 -6.66699 41.499 -20s26.5 -31.666 36.5 -54.999s15 -50.333 15 -81v-169h53v-103z" />
    <glyph glyph-name="bar" unicode="|" horiz-adv-x="176" 
d="M20 -100v800h136v-800h-136z" />
    <glyph glyph-name="braceright" unicode="}" horiz-adv-x="278" 
d="M0 -130v102.999h53v169c0 30.667 5 57.667 15 81s22.167 41.666 36.5 54.999s28.166 20 41.499 20v7c-13.333 -0.666992 -27.166 5.5 -41.499 18.5s-26.5 31.5 -36.5 55.5s-15 51.333 -15 82v169h-53v103h52c33.333 0 57.166 -2.66699 71.499 -8
s23.333 -14.666 27 -27.999s5.5 -32.333 5.5 -57v-90c0 -22.667 1.16699 -45.667 3.5 -69s7 -44.5 14 -63.5s17.167 -34.333 30.5 -46s31.333 -17.5 54 -17.5v-105c-22.667 0 -40.667 -5.83301 -54 -17.5s-23.5 -27 -30.5 -46s-11.667 -40 -14 -63s-3.5 -46.167 -3.5 -69.5
v-90c0 -24.667 -1.83301 -43.667 -5.5 -57s-12.667 -22.666 -27 -27.999s-38.166 -8 -71.499 -8h-52z" />
    <glyph glyph-name="asciitilde" unicode="~" horiz-adv-x="395" 
d="M20 210l-0.000976562 144.001c19.333 18.667 45.833 29.167 79.5 31.5s68.834 -3.83398 105.501 -18.501c36 -14.667 69.667 -20.167 101 -16.5s54.333 15.834 69 36.501v-144c-18 -20 -44 -31.167 -78 -33.5s-69.667 4.5 -107 20.5c-34 14.667 -66.5 20.167 -97.5 16.5
s-55.167 -15.834 -72.5 -36.501z" />
    <glyph glyph-name="uni00A0" unicode="&#xa0;" horiz-adv-x="180" 
 />
    <glyph glyph-name="exclamdown" unicode="&#xa1;" horiz-adv-x="153" 
d="M20 414v136h113v-136h-113zM20 -50v429h113v-429h-113z" />
    <glyph glyph-name="cent" unicode="&#xa2;" 
d="M138 -40v33c-42 3.33301 -72.167 16.166 -90.5 38.499s-27.5 56.833 -27.5 103.5v322c0 46.667 9.16699 81.167 27.5 103.5s48.5 35.166 90.5 38.499v41h95v-41c42.667 -3.33301 73.167 -16.166 91.5 -38.499s27.5 -56.833 27.5 -103.5v-142l-136 15v132
c0 3.33301 -1.66699 5 -5 5h-50c-3.33301 0 -5 -1.66699 -5 -5v-332c0 -3.33301 1.66699 -5 5 -5h50c3.33301 0 5 1.66699 5 5v97h136v-92c0 -46.667 -9.16699 -81.167 -27.5 -103.5s-48.833 -35.166 -91.5 -38.499v-33h-95z" />
    <glyph glyph-name="sterling" unicode="&#xa3;" horiz-adv-x="431" 
d="M15 0l0.00195312 133.001h29c3.33301 0 5 1.66699 5 5v95h-34l14 78h20v146c0 51.333 11.167 88 33.5 110s59.166 33 110.499 33h74c51.333 0 88.166 -11 110.499 -33s33.5 -58.667 33.5 -110v-93l-136 15v83c0 3.33301 -1.66699 5 -5 5h-80
c-3.33301 0 -5 -1.66699 -5 -5v-151h61l-14 -78h-47v-20c0 -32.667 -4.66699 -59.334 -14 -80.001h230l10 -133h-396z" />
    <glyph glyph-name="currency" unicode="&#xa4;" horiz-adv-x="392" 
d="M101 248l-80.998 81l45 45c-4.66699 15.333 -7 33.333 -7 54c0 20 2.33301 38 7 54l-45 44l81 81l45 -45c15.333 4 32.666 6 51.999 6c18 0 34 -2 48 -6l45 45l81 -81l-43 -43c4.66699 -16 7 -34.333 7 -55c0 -21.333 -2.33301 -40 -7 -56l43 -43l-81 -81l-46 46
c-14 -3.33301 -29.667 -5 -47 -5c-18.667 0 -35.334 2 -50.001 6zM196.002 390c26 0 39 12.667 39 38c0 24.667 -13 37 -39 37c-24 0 -36 -12.333 -36 -37c0 -25.333 12 -38 36 -38z" />
    <glyph glyph-name="yen" unicode="&#xa5;" horiz-adv-x="409" 
d="M84 106v120h53v25h-53v120h25l-89 329h135l50 -237l49 237h135l-89 -328h24v-121h-52v-24h52v-121h-52v-106h-135v106h-53z" />
    <glyph glyph-name="brokenbar" unicode="&#xa6;" horiz-adv-x="176" 
d="M20 370v330h136v-330h-136zM20 -100v330h136v-330h-136z" />
    <glyph glyph-name="section" unicode="&#xa7;" horiz-adv-x="382" 
d="M20 181l136 -10v-42c0 -3.33301 1.66699 -5 5 -5h60c3.33301 0 5 1.66699 5 5v29l-149 55l1 1c-18 5.33301 -32.167 14.333 -42.5 27s-15.5 28 -15.5 46v123c0 16.667 4.66699 31.334 14 44.001c-4 5.33301 -7.33301 11.5 -10 18.5s-4 14.833 -4 23.5v117
c0 28.667 8.66699 51.334 26 68.001s40 25 68 25h104c51.333 0 88.166 -11 110.499 -33s33.5 -58.667 33.5 -110v-47l-136 10v42c0 3.33301 -1.66699 5 -5 5h-60c-3.33301 0 -5 -1.66699 -5 -5v-29l147 -54c18 -6 32.333 -15.5 43 -28.5s16 -28.5 16 -46.5v-123
c0 -16.667 -4.66699 -31.334 -14 -44.001c4 -5.33301 7.33301 -11.333 10 -18s4 -14.667 4 -24v-117c0 -28.667 -8.66699 -51.334 -26 -68.001s-40 -25 -68 -25h-104c-51.333 0 -88.166 11.167 -110.499 33.5s-33.5 58.833 -33.5 109.5v47zM158 317
c0 -2.66699 1.66699 -4 5 -4h57c3.33301 0 5 1.33301 5 4v61c0 2.66699 -1.66699 4 -5 4h-57c-3.33301 0 -5 -1.33301 -5 -4v-61z" />
    <glyph glyph-name="dieresis" unicode="&#xa8;" horiz-adv-x="255" 
d="M137 720v97h98v-97h-98zM20 720v97h98v-97h-98z" />
    <glyph glyph-name="copyright" unicode="&#xa9;" horiz-adv-x="649" 
d="M114 0c-28 0 -50.667 7.33301 -68 22s-26 34 -26 58v456c0 28 8.66699 50.5 26 67.5s40 25.5 68 25.5h422c28 0 50.667 -8.5 68 -25.5s26 -39.5 26 -67.5l-1 -443c0 -28 -8.66699 -50.5 -26 -67.5s-40 -25.5 -68 -25.5h-421zM149 123h353c3.33301 0 5 1.66699 5 5l-1 373
c0 3.33301 -1.66699 5 -5 5h-352c-3.33301 0 -5 -1.66699 -5 -5v-373c0 -3.33301 1.66699 -5 5 -5zM486 318l-136 15v16c0 3.33301 -1.66699 5 -5 5h-40c-3.33301 0 -5 -1.66699 -5 -5v-69c0 -3.33301 1.66699 -5 5 -5h40c3.33301 0 5 1.66699 5 5v17h136v-12
c0 -48.667 -11.333 -84.5 -34 -107.5s-58 -34.833 -106 -35.5h-42c-48 0.666992 -83.333 12.5 -106 35.5s-34 58.833 -34 107.5v59c0 48.667 11.333 84.5 34 107.5s58 34.833 106 35.5h42c48 -0.666992 83.333 -12.5 106 -35.5s34 -58.833 34 -107.5v-26z" />
    <glyph glyph-name="ordfeminine" unicode="&#xaa;" horiz-adv-x="392" 
d="M372 343h-156.001v53l-36 -53h-16c-51.333 0 -88.166 11.167 -110.499 33.5s-33.5 58.833 -33.5 109.5v71c0 51.333 11 88 33 110s59.333 33 112 33c19.333 0 36.333 -3.33301 51 -10v10h136v-224h10zM160.999 567c-3.33301 0 -5 -1.66699 -5 -5v-81
c0 -3.33301 1.66699 -5 5 -5h55v91h-55zM44.999 202v120l302 1v-121h-302z" />
    <glyph glyph-name="guillemotleft" unicode="&#xab;" horiz-adv-x="439" 
d="M419 20l-219 210v38l219 210v-140l-96 -89l96 -89v-140zM239 20l-219 210v38l219 210v-140l-96 -89l96 -89v-140z" />
    <glyph glyph-name="logicalnot" unicode="&#xac;" horiz-adv-x="454" 
d="M20 252v136h414v-224h-136v88h-278z" />
    <glyph glyph-name="uni00AD" unicode="&#xad;" horiz-adv-x="274" 
d="M19 241v120l234 1v-121h-234z" />
    <glyph glyph-name="registered" unicode="&#xae;" horiz-adv-x="650" 
d="M114 171c-28 0 -50.667 7.33301 -68 22s-26 34 -26 58v456c0 28 8.66699 50.5 26 67.5s40 25.5 68 25.5h422c28 0 50.667 -8.5 68 -25.5s26 -39.5 26 -67.5l-1 -443c0 -28 -8.66699 -50.5 -26 -67.5s-40 -25.5 -68 -25.5h-421zM149 294h353c3.33301 0 5 1.66699 5 5
l-1 373c0 3.33301 -1.66699 5 -5 5h-352c-3.33301 0 -5 -1.66699 -5 -5v-373c0 -3.33301 1.66699 -5 5 -5zM188 308v234h-17l12 121h148c47.333 0 81 -10.167 101 -30.5s30 -53.5 30 -99.5v-14c0 -43.333 -8.66699 -75 -26 -95l44 -116h-124l-30 82h-15v-82h-123zM334 542
h-23v-31h23c3.33301 0 5 1.66699 5 5v21c0 3.33301 -1.66699 5 -5 5z" />
    <glyph glyph-name="macron" unicode="&#xaf;" horiz-adv-x="294" 
d="M20 726v89h254v-89h-254z" />
    <glyph glyph-name="degree" unicode="&#xb0;" horiz-adv-x="263" 
d="M132 425c-74.667 0 -112 45.667 -112 137c0 92 37.333 138 112 138c74 0 111 -46 111 -138c0 -91.333 -37 -137 -111 -137zM131 519c18 0 27 14.333 27 43c0 30 -9 45 -27 45c-16.667 0 -25 -15 -25 -45c0 -28.667 8.33301 -43 25 -43z" />
    <glyph glyph-name="plusminus" unicode="&#xb1;" horiz-adv-x="320" 
d="M98 299v80h-78v121h78v79h124v-79h78v-121h-78v-80h-124zM30 134v120l260 1v-121h-260z" />
    <glyph glyph-name="uni00B2" unicode="&#xb2;" horiz-adv-x="207" 
d="M187 300l-167 0.000976562v132c0 18 5.66699 32.5 17 43.5s26.333 16.5 45 16.5h13c2.66699 0 4 1 4 3v15c0 2.66699 -1.33301 4 -4 4h-75v86h106c18 0 32.667 -5.5 44 -16.5s17 -25.5 17 -43.5v-74c0 -18.667 -5.66699 -33.334 -17 -44.001s-26 -16 -44 -16h-21
c-2 0 -3 -1.33301 -3 -4v-16h85v-86z" />
    <glyph glyph-name="uni00B3" unicode="&#xb3;" horiz-adv-x="207" 
d="M20 302v86h75c2.66699 0 4 1.33301 4 4v17h-60v83h60v18c0 2.66699 -1.33301 4 -4 4h-75v86h106c18 0 32.667 -5.5 44 -16.5s17 -25.5 17 -43.5v-178c0 -18 -5.66699 -32.5 -17 -43.5s-26 -16.5 -44 -16.5h-106z" />
    <glyph glyph-name="acute" unicode="&#xb4;" horiz-adv-x="183" 
d="M20 720l36 106h107l-36 -106h-107z" />
    <glyph glyph-name="uni00B5" unicode="&#xb5;" horiz-adv-x="412" 
d="M40 -132v499h-20l10 133h146v-362c0 -3.33301 1.66699 -5 5 -5h55v367h136v-367h10l10 -133h-156v53l-36 -53h-16h-8v-132h-136z" />
    <glyph glyph-name="paragraph" unicode="&#xb6;" horiz-adv-x="517" 
d="M151 567c-3.33301 0 -5 -1.66699 -5 -5v-238c0 -3.33301 1.66699 -5 5 -5h34v248h-34zM321 319h20v248h-20v-248zM185 0v186h-31c-51.333 0 -88.166 11.167 -110.499 33.5s-33.5 58.833 -33.5 109.5v228c0 50 11.167 86.333 33.5 109s59.166 34 110.499 34h343l10 -133
h-30v-434h20l10 -133h-166v186h-20v-186h-136z" />
    <glyph glyph-name="periodcentered" unicode="&#xb7;" horiz-adv-x="240" 
d="M20 200v200h200v-200h-200z" />
    <glyph glyph-name="cedilla" unicode="&#xb8;" horiz-adv-x="163" 
d="M106 1l0.000976562 -18.001h1c9.33301 0 17.666 -3.16699 24.999 -9.5s11 -14.166 11 -23.499v-31c0 -7.33301 -3.83301 -13.333 -11.5 -18s-17.167 -7 -28.5 -7h-83v51h48v-15h27v20h-6c-20.667 0 -31 9 -31 27v24h48z" />
    <glyph glyph-name="uni00B9" unicode="&#xb9;" horiz-adv-x="177" 
d="M23 300v93h19v108h-22l14 94h103v-202h20v-93h-134z" />
    <glyph glyph-name="ordmasculine" unicode="&#xba;" horiz-adv-x="342" 
d="M183 475c2 0 3 1 3 3v86c0 2 -1 3 -3 3h-24c-2 0 -3 -1 -3 -3v-86c0 -2 1 -3 3 -3h24zM40 202v120l262 1v-121h-262zM160 342c-50 0 -85.833 11.167 -107.5 33.5s-32.5 58.833 -32.5 109.5v72c0 50.667 10.833 87.167 32.5 109.5s57.5 33.5 107.5 33.5h18
c51.333 0 88.166 -11 110.499 -33s33.5 -58.667 33.5 -110v-72c0 -50.667 -11.167 -87.167 -33.5 -109.5s-59.166 -33.5 -110.499 -33.5h-18z" />
    <glyph glyph-name="guillemotright" unicode="&#xbb;" horiz-adv-x="448" 
d="M200 20v140l96 89l-96 89v140l219 -210v-38zM20 20v140l96 89l-96 89v140l219 -210v-38z" />
    <glyph glyph-name="onequarter" unicode="&#xbc;" horiz-adv-x="606" 
d="M20 0l376 600h134l-377 -600h-133zM45 300v93h19v108h-22l14 94h103v-202h20v-93h-134zM586 71v-70h-124v70h15v21h-71c-18.667 0 -34.167 6 -46.5 18s-16.833 28 -13.5 48l24 143h90l-16 -119h33v119h95v-119h14v-90h-14v-21h14z" />
    <glyph glyph-name="onehalf" unicode="&#xbd;" horiz-adv-x="556" 
d="M20 0l376 600h134l-377 -600h-133zM45 300v93h19v108h-22l14 94h103v-202h20v-93h-134zM369 132c0 18 5.66699 32.501 17 43.501s26.333 16.5 45 16.5h13c2.66699 0 4 1 4 3v15c0 2.66699 -1.33301 4 -4 4h-75v86h106c18 0 32.667 -5.5 44 -16.5s17 -25.5 17 -43.5v-74
c0 -18.667 -5.66699 -33.334 -17 -44.001s-26 -16 -44 -16h-21c-2 0 -3 -1.33301 -3 -4v-16h85v-86h-167v132z" />
    <glyph glyph-name="threequarters" unicode="&#xbe;" horiz-adv-x="604" 
d="M20 0l376 600h134l-377 -600h-133zM29 302v86h75c2.66699 0 4 1.33301 4 4v17h-60v83h60v18c0 2.66699 -1.33301 4 -4 4h-75v86h106c18 0 32.667 -5.5 44 -16.5s17 -25.5 17 -43.5v-178c0 -18 -5.66699 -32.5 -17 -43.5s-26 -16.5 -44 -16.5h-106zM460 1v70h15v21h-71
c-18.667 0 -34.167 6 -46.5 18s-16.833 28 -13.5 48l24 143h90l-16 -119h33v119h95v-119h14v-90h-14v-21h14v-70h-124z" />
    <glyph glyph-name="questiondown" unicode="&#xbf;" horiz-adv-x="307" 
d="M173 124l114 -0.000976562v-200h-173c-27.333 0 -49.833 8.66699 -67.5 26s-26.5 39.666 -26.5 66.999v156c0 24.667 8.5 45.834 25.5 63.501s36.167 26.834 57.5 27.501c3.33301 0 5 2 5 6v83h113v-87c0 -26 -5.83301 -48 -17.5 -66s-33.167 -27 -64.5 -27
c-3.33301 0 -5 -1.66699 -5 -5v-106c0 -3.33301 1.66699 -5 5 -5h34v67zM221 523.999v-136h-113v136h113z" />
    <glyph glyph-name="Agrave" unicode="&#xc0;" horiz-adv-x="452" 
d="M20 0l83 567h-21l14 133h233l103 -700h-135l-15 100h-112l-15 -100h-135zM189 233h74l-37 250zM166 720l-36 106h107l36 -106h-107z" />
    <glyph glyph-name="Aacute" unicode="&#xc1;" horiz-adv-x="452" 
d="M20 0l83 567h-21l14 133h233l103 -700h-135l-15 100h-112l-15 -100h-135zM189 233h74l-37 250zM153 720l36 106h107l-36 -106h-107z" />
    <glyph glyph-name="Acircumflex" unicode="&#xc2;" horiz-adv-x="452" 
d="M20 0l83 567h-21l14 133h233l103 -700h-135l-15 100h-112l-15 -100h-135zM189 233h74l-37 250zM116 730l42 94h111l42 -94h-80l-17 39l-18 -39h-80z" />
    <glyph glyph-name="Atilde" unicode="&#xc3;" horiz-adv-x="452" 
d="M20 0l83 567h-21l14 133h233l103 -700h-135l-15 100h-112l-15 -100h-135zM189 233h74l-37 250zM311 832v-86c-7.33301 -11.333 -21 -17.5 -41 -18.5s-38.667 3.16699 -56 12.5c-14.667 8 -31.334 11 -50.001 9s-31.667 -9 -39 -21v86c8 10.667 22 16.667 42 18
s38.333 -2.66699 55 -12c15.333 -8.66699 32.333 -12 51 -10s31.334 9.33301 38.001 22z" />
    <glyph glyph-name="Adieresis" unicode="&#xc4;" horiz-adv-x="452" 
d="M20 0l83 567h-21l14 133h233l103 -700h-135l-15 100h-112l-15 -100h-135zM189 233h74l-37 250zM227 720v97h98v-97h-98zM110 720v97h98v-97h-98z" />
    <glyph glyph-name="Aring" unicode="&#xc5;" horiz-adv-x="452" 
d="M20 0l83 567h-21l14 133h233l103 -700h-135l-15 100h-112l-15 -100h-135zM189 233h74l-37 250zM219 716c-20 0 -37 6.83301 -51 20.5s-21 30.5 -21 50.5s7 37 21 51s31 21 51 21c20.667 0 38 -7 52 -21s21 -31 21 -51s-7 -36.833 -21 -50.5s-31.333 -20.5 -52 -20.5z
M219 768c12.667 0 19.001 6.33301 19.001 19c0 5.33301 -1.83301 10 -5.5 14s-8.16699 6 -13.5 6c-4.66699 0.666992 -8.83398 -1 -12.501 -5s-5.5 -9 -5.5 -15c0 -12.667 6 -19 18 -19z" />
    <glyph glyph-name="AE" unicode="&#xc6;" horiz-adv-x="600" 
d="M0 0l83 567h-21l14 133h482l-8 -133h-221l22 -150h185l-8 -133h-158l22 -151h166l-8 -133h-273l-15 100h-112l-15 -100h-135zM169 233h74l-37 250z" />
    <glyph glyph-name="Ccedilla" unicode="&#xc7;" 
d="M352 290v-155c0 -50.667 -11.167 -87.167 -33.5 -109.5s-59.166 -33.5 -110.499 -33.5h-44c-51.333 0 -88.166 11.167 -110.499 33.5s-33.5 58.833 -33.5 109.5v430c0 51.333 11.167 88 33.5 110s59.166 33 110.499 33h44c51.333 0 88.166 -11 110.499 -33
s33.5 -58.667 33.5 -110v-165l-136 15v155c0 3.33301 -1.66699 5 -5 5h-50c-3.33301 0 -5 -1.66699 -5 -5v-440c0 -3.33301 1.66699 -5 5 -5h50c3.33301 0 5 1.66699 5 5v160h136zM216 1l0.000976562 -18.001h1c9.33301 0 17.666 -3.16699 24.999 -9.5
s11 -14.166 11 -23.499v-31c0 -7.33301 -3.83301 -13.333 -11.5 -18s-17.167 -7 -28.5 -7h-83v51h48v-15h27v20h-6c-20.667 0 -31 9 -31 27v24h48z" />
    <glyph glyph-name="Egrave" unicode="&#xc8;" horiz-adv-x="340" 
d="M39 0v567h-19l14 133h286l-8 -133h-137v-150h123l-8 -133h-115v-151h145l-8 -133h-273zM121 720l-36 106h107l36 -106h-107z" />
    <glyph glyph-name="Eacute" unicode="&#xc9;" horiz-adv-x="340" 
d="M108 720l36 106h107l-36 -106h-107zM39 0v567h-19l14 133h286l-8 -133h-137v-150h123l-8 -133h-115v-151h145l-8 -133h-273z" />
    <glyph glyph-name="Ecircumflex" unicode="&#xca;" horiz-adv-x="340" 
d="M78 730l42 94h111l42 -94h-80l-17 39l-18 -39h-80zM39 0v567h-19l14 133h286l-8 -133h-137v-150h123l-8 -133h-115v-151h145l-8 -133h-273z" />
    <glyph glyph-name="Edieresis" unicode="&#xcb;" horiz-adv-x="340" 
d="M39 0v567h-19l14 133h286l-8 -133h-137v-150h123l-8 -133h-115v-151h145l-8 -133h-273zM186 720v97h98v-97h-98zM69 720v97h98v-97h-98z" />
    <glyph glyph-name="Igrave" unicode="&#xcc;" horiz-adv-x="195" 
d="M56 720l-36 106h107l36 -106h-107zM39 0v567h-19l14 133h141v-700h-136z" />
    <glyph glyph-name="Iacute" unicode="&#xcd;" horiz-adv-x="195" 
d="M39 720l36 106h107l-36 -106h-107zM39 0v567h-19l14 133h141v-700h-136z" />
    <glyph glyph-name="Icircumflex" unicode="&#xce;" horiz-adv-x="195" 
d="M0 730l42 94h111l42 -94h-80l-17 39l-18 -39h-80zM39 0v567h-19l14 133h141v-700h-136z" />
    <glyph glyph-name="Idieresis" unicode="&#xcf;" horiz-adv-x="195" 
d="M39 0v567h-19l14 133h141v-700h-136zM109 720v97h98v-97h-98zM-8 720v97h98v-97h-98z" />
    <glyph glyph-name="Eth" unicode="&#xd0;" horiz-adv-x="404" 
d="M20 290v120h32v157h-19l14 133h193c51.333 0 88.166 -11 110.499 -33s33.5 -58.667 33.5 -110v-414c0 -50.667 -11.167 -87.167 -33.5 -109.5s-59.166 -33.5 -110.499 -33.5h-188v290h-32zM243 133c3.33301 0 5 1.66699 5 5v424c0 3.33301 -1.66699 5 -5 5h-55v-156h34
v-121h-34v-157h55z" />
    <glyph glyph-name="Ntilde" unicode="&#xd1;" horiz-adv-x="445" 
d="M311 832v-86c-7.33301 -11.333 -21 -17.5 -41 -18.5s-38.667 3.16699 -56 12.5c-14.667 8 -31.334 11 -50.001 9s-31.667 -9 -39 -21v86c8 10.667 22 16.667 42 18s38.333 -2.66699 55 -12c15.333 -8.66699 32.333 -12 51 -10s31.334 9.33301 38.001 22zM39 0v567h-19
l14 133h141l114 -380v380h136v-700h-136l-114 380v-380h-136z" />
    <glyph glyph-name="Ograve" unicode="&#xd2;" 
d="M352 139c0 -50.667 -11.167 -87.167 -33.5 -109.5s-59.166 -33.5 -110.499 -33.5h-44c-51.333 0 -88.166 11.167 -110.499 33.5s-33.5 58.833 -33.5 109.5v422c0 51.333 11.167 88 33.5 110s59.166 33 110.499 33h44c51.333 0 88.166 -11 110.499 -33
s33.5 -58.667 33.5 -110v-422zM161 571c-3.33301 0 -5 -1.66699 -5 -5v-432c0 -3.33301 1.66699 -5 5 -5h50c3.33301 0 5 1.66699 5 5v432c0 3.33301 -1.66699 5 -5 5h-50zM133 720l-36 106h107l36 -106h-107z" />
    <glyph glyph-name="Oacute" unicode="&#xd3;" 
d="M352 139c0 -50.667 -11.167 -87.167 -33.5 -109.5s-59.166 -33.5 -110.499 -33.5h-44c-51.333 0 -88.166 11.167 -110.499 33.5s-33.5 58.833 -33.5 109.5v422c0 51.333 11.167 88 33.5 110s59.166 33 110.499 33h44c51.333 0 88.166 -11 110.499 -33
s33.5 -58.667 33.5 -110v-422zM161 571c-3.33301 0 -5 -1.66699 -5 -5v-432c0 -3.33301 1.66699 -5 5 -5h50c3.33301 0 5 1.66699 5 5v432c0 3.33301 -1.66699 5 -5 5h-50zM133 720l36 106h107l-36 -106h-107z" />
    <glyph glyph-name="Ocircumflex" unicode="&#xd4;" 
d="M89 730l42 94h111l42 -94h-80l-17 39l-18 -39h-80zM352 139c0 -50.667 -11.167 -87.167 -33.5 -109.5s-59.166 -33.5 -110.499 -33.5h-44c-51.333 0 -88.166 11.167 -110.499 33.5s-33.5 58.833 -33.5 109.5v422c0 51.333 11.167 88 33.5 110s59.166 33 110.499 33h44
c51.333 0 88.166 -11 110.499 -33s33.5 -58.667 33.5 -110v-422zM161 571c-3.33301 0 -5 -1.66699 -5 -5v-432c0 -3.33301 1.66699 -5 5 -5h50c3.33301 0 5 1.66699 5 5v432c0 3.33301 -1.66699 5 -5 5h-50z" />
    <glyph glyph-name="Otilde" unicode="&#xd5;" 
d="M352 139c0 -50.667 -11.167 -87.167 -33.5 -109.5s-59.166 -33.5 -110.499 -33.5h-44c-51.333 0 -88.166 11.167 -110.499 33.5s-33.5 58.833 -33.5 109.5v422c0 51.333 11.167 88 33.5 110s59.166 33 110.499 33h44c51.333 0 88.166 -11 110.499 -33
s33.5 -58.667 33.5 -110v-422zM161 571c-3.33301 0 -5 -1.66699 -5 -5v-432c0 -3.33301 1.66699 -5 5 -5h50c3.33301 0 5 1.66699 5 5v432c0 3.33301 -1.66699 5 -5 5h-50zM279 832v-86c-7.33301 -11.333 -21 -17.5 -41 -18.5s-38.667 3.16699 -56 12.5
c-14.667 8 -31.334 11 -50.001 9s-31.667 -9 -39 -21v86c8 10.667 22 16.667 42 18s38.333 -2.66699 55 -12c15.333 -8.66699 32.333 -12 51 -10s31.334 9.33301 38.001 22z" />
    <glyph glyph-name="Odieresis" unicode="&#xd6;" 
d="M352 139c0 -50.667 -11.167 -87.167 -33.5 -109.5s-59.166 -33.5 -110.499 -33.5h-44c-51.333 0 -88.166 11.167 -110.499 33.5s-33.5 58.833 -33.5 109.5v422c0 51.333 11.167 88 33.5 110s59.166 33 110.499 33h44c51.333 0 88.166 -11 110.499 -33
s33.5 -58.667 33.5 -110v-422zM161 571c-3.33301 0 -5 -1.66699 -5 -5v-432c0 -3.33301 1.66699 -5 5 -5h50c3.33301 0 5 1.66699 5 5v432c0 3.33301 -1.66699 5 -5 5h-50zM196 720v97h98v-97h-98zM79 720v97h98v-97h-98z" />
    <glyph glyph-name="multiply" unicode="&#xd7;" horiz-adv-x="328" 
d="M93 157l-73 74l70 71l-70 71l75 74l69 -70l69 70l75 -74l-70 -71l70 -71l-73 -74l-71 71z" />
    <glyph glyph-name="Oslash" unicode="&#xd8;" 
d="M352 139c0 -50.667 -11.167 -87.167 -33.5 -109.5s-59.166 -33.5 -110.499 -33.5h-44c-51.333 0 -88.166 11.167 -110.499 33.5s-33.5 58.833 -33.5 109.5v422c0 51.333 11.167 88 33.5 110s59.166 33 110.499 33h44c51.333 0 88.166 -11 110.499 -33
s33.5 -58.667 33.5 -110v-422zM161 571c-3.33301 0 -5 -1.66699 -5 -5v-432c0 -3.33301 1.66699 -5 5 -5h50c3.33301 0 5 1.66699 5 5v432c0 3.33301 -1.66699 5 -5 5h-50zM58.9053 -37.0361l63.1846 780.009h84.4443l-63.1855 -780.009h-84.4434z" />
    <glyph glyph-name="Ugrave" unicode="&#xd9;" horiz-adv-x="391" 
d="M376 139c0 -50.667 -11.1689 -87.167 -33.502 -109.5s-59.166 -33.5 -110.499 -33.5h-54c-51.333 0 -88.166 11.167 -110.499 33.5s-33.5 58.833 -33.5 109.5v428h-19l14 133h141v-566c0 -3.33301 1.66699 -5 5 -5h60c3.33301 0 5 1.66699 5 5v566h136v-561zM156.998 720
l-36 106h107l36 -106h-107z" />
    <glyph glyph-name="Uacute" unicode="&#xda;" horiz-adv-x="391" 
d="M376 139c0 -50.667 -11.1689 -87.167 -33.502 -109.5s-59.166 -33.5 -110.499 -33.5h-54c-51.333 0 -88.166 11.167 -110.499 33.5s-33.5 58.833 -33.5 109.5v428h-19l14 133h141v-566c0 -3.33301 1.66699 -5 5 -5h60c3.33301 0 5 1.66699 5 5v566h136v-561zM156.998 720
l36 106h107l-36 -106h-107z" />
    <glyph glyph-name="Ucircumflex" unicode="&#xdb;" horiz-adv-x="391" 
d="M376 139c0 -50.667 -11.1689 -87.167 -33.502 -109.5s-59.166 -33.5 -110.499 -33.5h-54c-51.333 0 -88.166 11.167 -110.499 33.5s-33.5 58.833 -33.5 109.5v428h-19l14 133h141v-566c0 -3.33301 1.66699 -5 5 -5h60c3.33301 0 5 1.66699 5 5v566h136v-561zM111.998 730
l42 94h111l42 -94h-80l-17 39l-18 -39h-80z" />
    <glyph glyph-name="Udieresis" unicode="&#xdc;" horiz-adv-x="391" 
d="M376 139c0 -50.667 -11.1689 -87.167 -33.502 -109.5s-59.166 -33.5 -110.499 -33.5h-54c-51.333 0 -88.166 11.167 -110.499 33.5s-33.5 58.833 -33.5 109.5v428h-19l14 133h141v-566c0 -3.33301 1.66699 -5 5 -5h60c3.33301 0 5 1.66699 5 5v566h136v-561zM218.998 720
v97h98v-97h-98zM101.998 720v97h98v-97h-98z" />
    <glyph glyph-name="Yacute" unicode="&#xdd;" horiz-adv-x="409" 
d="M151 720l36 106h107l-36 -106h-107zM137 0v269l-117 431h135l50 -237l49 237h135l-117 -431v-269h-135z" />
    <glyph glyph-name="Thorn" unicode="&#xde;" horiz-adv-x="362" 
d="M20 3v797h136v-139h42c51.333 0 88.166 -11 110.499 -33s33.5 -58.667 33.5 -110v-115h-136v120c0 3.33301 -1.66699 5 -5 5h-45v-252h45c3.33301 0 5 1.66699 5 5v120h136v-115c0 -50.667 -11.167 -87.167 -33.5 -109.5s-59.166 -33.5 -110.499 -33.5h-42v-140h-136z
" />
    <glyph glyph-name="germandbls" unicode="&#xdf;" horiz-adv-x="484" 
d="M20 0l0.000976562 606.999c0 28 8.66699 50.5 26 67.5s40 25.5 68 25.5h110c51.333 0 88.166 -10.167 110.499 -30.5s33.5 -51.166 33.5 -92.499v-161c0 -17.333 -1.5 -30.333 -4.5 -39s-7.5 -14.667 -13.5 -18l-6 -3v-4l66 -24c16 -6 29 -14.5 39 -25.5
s15 -27.833 15 -50.5v-159c0 -28 -8.66699 -50.5 -26 -67.5s-40 -25.5 -68 -25.5h-168v133h121c3.33301 0 5 1.66699 5 5v75l-96 29c-17.333 5.33301 -30 11.5 -38 18.5s-12 19.167 -12 36.5v73c0 12 2 21 6 27s8.33301 11 13 15l21 16v129c0 6.66699 -3 10 -9 10h-57v-567
h-136z" />
    <glyph glyph-name="agrave" unicode="&#xe0;" horiz-adv-x="392" 
d="M142 530l-36 106h107l36 -106h-107zM164 0c-51.333 0 -88.167 11.167 -110.5 33.5s-33.5 58.833 -33.5 109.5v214c0 51.333 10.833 88 32.5 110s57.5 33 107.5 33h9c17.333 0 33 -3 47 -9v9h136v-367h10l10 -133h-156v53l-36 -53h-16zM160.999 367
c-3.33301 0 -5 -1.66699 -5 -5v-224c0 -3.33301 1.66699 -5 5 -5h55v234h-55z" />
    <glyph glyph-name="aacute" unicode="&#xe1;" horiz-adv-x="392" 
d="M133 530l36 106h107l-36 -106h-107zM164 0c-51.333 0 -88.167 11.167 -110.5 33.5s-33.5 58.833 -33.5 109.5v214c0 51.333 10.833 88 32.5 110s57.5 33 107.5 33h9c17.333 0 33 -3 47 -9v9h136v-367h10l10 -133h-156v53l-36 -53h-16zM160.999 367
c-3.33301 0 -5 -1.66699 -5 -5v-224c0 -3.33301 1.66699 -5 5 -5h55v234h-55z" />
    <glyph glyph-name="acircumflex" unicode="&#xe2;" horiz-adv-x="382" 
d="M164 0c-51.333 0 -88.167 11.167 -110.5 33.5s-33.5 58.833 -33.5 109.5v214c0 51.333 10.833 88 32.5 110s57.5 33 107.5 33h9c17.333 0 33 -3 47 -9v9h136v-367h10l10 -133h-156v53l-36 -53h-16zM160.999 367c-3.33301 0 -5 -1.66699 -5 -5v-224
c0 -3.33301 1.66699 -5 5 -5h55v234h-55zM92.999 530l42 94h111l42 -94h-80l-17 39l-18 -39h-80z" />
    <glyph glyph-name="atilde" unicode="&#xe3;" horiz-adv-x="392" 
d="M285 631v-86c-7.33301 -11.333 -21 -17.5 -41 -18.5s-38.667 3.16699 -56 12.5c-14.667 8 -31.334 11 -50.001 9s-31.667 -9 -39 -21v86c8 10.667 22 16.667 42 18s38.333 -2.66699 55 -12c15.333 -8.66699 32.333 -12 51 -10s31.334 9.33301 38.001 22zM164 0
c-51.333 0 -88.167 11.167 -110.5 33.5s-33.5 58.833 -33.5 109.5v214c0 51.333 10.833 88 32.5 110s57.5 33 107.5 33h9c17.333 0 33 -3 47 -9v9h136v-367h10l10 -133h-156v53l-36 -53h-16zM160.999 367c-3.33301 0 -5 -1.66699 -5 -5v-224c0 -3.33301 1.66699 -5 5 -5h55
v234h-55z" />
    <glyph glyph-name="adieresis" unicode="&#xe4;" horiz-adv-x="392" 
d="M208 538v97h98v-97h-98zM91 538v97h98v-97h-98zM164 0c-51.333 0 -88.167 11.167 -110.5 33.5s-33.5 58.833 -33.5 109.5v214c0 51.333 10.833 88 32.5 110s57.5 33 107.5 33h9c17.333 0 33 -3 47 -9v9h136v-367h10l10 -133h-156v53l-36 -53h-16zM160.999 367
c-3.33301 0 -5 -1.66699 -5 -5v-224c0 -3.33301 1.66699 -5 5 -5h55v234h-55z" />
    <glyph glyph-name="aring" unicode="&#xe5;" horiz-adv-x="392" 
d="M189 530c-20 0 -37 6.83301 -51 20.5s-21 30.5 -21 50.5s7 37 21 51s31 21 51 21c20.667 0 38 -7 52 -21s21 -31 21 -51s-7 -36.833 -21 -50.5s-31.333 -20.5 -52 -20.5zM189 582c12.667 0 19.001 6.33301 19.001 19c0 5.33301 -1.83301 10 -5.5 14s-8.16699 6 -13.5 6
c-4.66699 0.666992 -8.83398 -1 -12.501 -5s-5.5 -9 -5.5 -15c0 -12.667 6 -19 18 -19zM164.001 0c-51.333 0 -88.167 11.167 -110.5 33.5s-33.5 58.833 -33.5 109.5v214c0 51.333 10.833 88 32.5 110s57.5 33 107.5 33h9c17.333 0 33 -3 47 -9v9h136v-367h10l10 -133h-156
v53l-36 -53h-16zM161 367c-3.33301 0 -5 -1.66699 -5 -5v-224c0 -3.33301 1.66699 -5 5 -5h55v234h-55z" />
    <glyph glyph-name="ae" unicode="&#xe6;" horiz-adv-x="568" 
d="M164 0c-51.333 0 -88.167 11.167 -110.5 33.5s-33.5 58.833 -33.5 109.5v214c0 51.333 10.833 88 32.5 110s57.5 33 107.5 33h9c17.333 0 33 -3 47 -9v9h136v0h8h44c51.333 0 88.166 -11 110.499 -33s33.5 -58.667 33.5 -110v-173h-196v-46c0 -3.33301 1.66699 -5 5 -5
h50c3.33301 0 5 1.66699 5 5v25h136v-20c0 -50.667 -11.167 -87.167 -33.5 -109.5s-59.166 -33.5 -110.499 -33.5h-188v53l-36 -53h-16zM411.999 362c0 3.33301 -1.66699 5 -5 5h-50c-3.33301 0 -5 -1.66699 -5 -5v-65h60v65zM160.999 367c-3.33301 0 -5 -1.66699 -5 -5
v-224c0 -3.33301 1.66699 -5 5 -5h55v234h-55z" />
    <glyph glyph-name="ccedilla" unicode="&#xe7;" 
d="M20 135v222c0 51.333 11.167 88 33.5 110s59.166 33 110.499 33h44c51.333 0 88.166 -11 110.499 -33s33.5 -58.667 33.5 -110v-93l-136 15v83c0 3.33301 -1.66699 5 -5 5h-50c-3.33301 0 -5 -1.66699 -5 -5v-232c0 -3.33301 1.66699 -5 5 -5h50c3.33301 0 5 1.66699 5 5
v89h136v-84c0 -50.667 -11.167 -87.167 -33.5 -109.5s-59.166 -33.5 -110.499 -33.5h-44c-51.333 0 -88.166 11 -110.499 33s-33.5 58.667 -33.5 110zM201 1l0.000976562 -18.001h1c9.33301 0 17.666 -3.16699 24.999 -9.5s11 -14.166 11 -23.499v-31
c0 -7.33301 -3.83301 -13.333 -11.5 -18s-17.167 -7 -28.5 -7h-83v51h48v-15h27v20h-6c-20.667 0 -31 9 -31 27v24h48z" />
    <glyph glyph-name="egrave" unicode="&#xe8;" 
d="M127 530l-36 106h107l36 -106h-107zM20 135v222c0 51.333 11.167 88 33.5 110s59.166 33 110.499 33h44c51.333 0 88.166 -11 110.499 -33s33.5 -58.667 33.5 -110v-173h-196v-54c0 -3.33301 1.66699 -5 5 -5h50c3.33301 0 5 1.66699 5 5v33h136v-28
c0 -50.667 -11.167 -87.167 -33.5 -109.5s-59.166 -33.5 -110.499 -33.5h-44c-51.333 0 -88.166 11 -110.499 33s-33.5 58.667 -33.5 110zM216 362c0 3.33301 -1.66699 5 -5 5h-50c-3.33301 0 -5 -1.66699 -5 -5v-65h60v65z" />
    <glyph glyph-name="eacute" unicode="&#xe9;" 
d="M122 530l36 106h107l-36 -106h-107zM20 135v222c0 51.333 11.167 88 33.5 110s59.166 33 110.499 33h44c51.333 0 88.166 -11 110.499 -33s33.5 -58.667 33.5 -110v-173h-196v-54c0 -3.33301 1.66699 -5 5 -5h50c3.33301 0 5 1.66699 5 5v33h136v-28
c0 -50.667 -11.167 -87.167 -33.5 -109.5s-59.166 -33.5 -110.499 -33.5h-44c-51.333 0 -88.166 11 -110.499 33s-33.5 58.667 -33.5 110zM216 362c0 3.33301 -1.66699 5 -5 5h-50c-3.33301 0 -5 -1.66699 -5 -5v-65h60v65z" />
    <glyph glyph-name="ecircumflex" unicode="&#xea;" 
d="M89 530l42 94h111l42 -94h-80l-17 39l-18 -39h-80zM20 135v222c0 51.333 11.167 88 33.5 110s59.166 33 110.499 33h44c51.333 0 88.166 -11 110.499 -33s33.5 -58.667 33.5 -110v-173h-196v-54c0 -3.33301 1.66699 -5 5 -5h50c3.33301 0 5 1.66699 5 5v33h136v-28
c0 -50.667 -11.167 -87.167 -33.5 -109.5s-59.166 -33.5 -110.499 -33.5h-44c-51.333 0 -88.166 11 -110.499 33s-33.5 58.667 -33.5 110zM216 362c0 3.33301 -1.66699 5 -5 5h-50c-3.33301 0 -5 -1.66699 -5 -5v-65h60v65z" />
    <glyph glyph-name="edieresis" unicode="&#xeb;" 
d="M193 538v97h98v-97h-98zM76 538v97h98v-97h-98zM20 135v222c0 51.333 11.167 88 33.5 110s59.166 33 110.499 33h44c51.333 0 88.166 -11 110.499 -33s33.5 -58.667 33.5 -110v-173h-196v-54c0 -3.33301 1.66699 -5 5 -5h50c3.33301 0 5 1.66699 5 5v33h136v-28
c0 -50.667 -11.167 -87.167 -33.5 -109.5s-59.166 -33.5 -110.499 -33.5h-44c-51.333 0 -88.166 11 -110.499 33s-33.5 58.667 -33.5 110zM216 362c0 3.33301 -1.66699 5 -5 5h-50c-3.33301 0 -5 -1.66699 -5 -5v-65h60v65z" />
    <glyph glyph-name="igrave" unicode="&#xec;" horiz-adv-x="199" 
d="M56 530l-36 106h107l36 -106h-107zM43 0v367h-16l10 133h142v-500h-136z" />
    <glyph glyph-name="iacute" unicode="&#xed;" horiz-adv-x="205" 
d="M42 530l36 106h107l-36 -106h-107zM36 0v367h-16l10 133h142v-500h-136z" />
    <glyph glyph-name="icircumflex" unicode="&#xee;" horiz-adv-x="192" 
d="M36 0v367h-16l10 133h142v-500h-136zM0 530l42 94h111l42 -94h-80l-17 39l-18 -39h-80z" />
    <glyph glyph-name="idieresis" unicode="&#xef;" horiz-adv-x="255" 
d="M137 538v97h98v-97h-98zM20 538v97h98v-97h-98zM62 0v367h-16l10 133h142v-500h-136z" />
    <glyph glyph-name="eth" unicode="&#xf0;" horiz-adv-x="393" 
d="M164 0c-51.333 0 -88.167 11.167 -110.5 33.5s-33.5 58.833 -33.5 109.5v214c0 51.333 10.833 88 32.5 110s57.5 33 107.5 33h9c17.333 0 33 -3 47 -9v15h-34v53h34v8h-20l10 133h146v-141h21v-53h-21v-373h10l10 -133h-156v53l-36 -53h-16zM160.999 367
c-3.33301 0 -5 -1.66699 -5 -5v-224c0 -3.33301 1.66699 -5 5 -5h55v234h-55z" />
    <glyph glyph-name="ntilde" unicode="&#xf1;" horiz-adv-x="412" 
d="M287 631v-86c-7.33301 -11.333 -21 -17.5 -41 -18.5s-38.667 3.16699 -56 12.5c-14.667 8 -31.334 11 -50.001 9s-31.667 -9 -39 -21v86c8 10.667 22 16.667 42 18s38.333 -2.66699 55 -12c15.333 -8.66699 32.333 -12 51 -10s31.334 9.33301 38.001 22zM40 0
l0.000976562 367h-20l10 133h146v-53l36 53h16c51.333 0 88.166 -11 110.499 -33s33.5 -58.667 33.5 -110v-224h20l-10 -133h-146v362c0 3.33301 -1.66699 5 -5 5h-55v-367h-136z" />
    <glyph glyph-name="ograve" unicode="&#xf2;" 
d="M132 530l-36 106h107l36 -106h-107zM216 362c0 3.33301 -1.66699 5 -5 5h-50c-3.33301 0 -5 -1.66699 -5 -5v-232c0 -3.33301 1.66699 -5 5 -5h50c3.33301 0 5 1.66699 5 5v232zM20 135v222c0 51.333 11.167 88 33.5 110s59.166 33 110.499 33h44
c51.333 0 88.166 -11 110.499 -33s33.5 -58.667 33.5 -110v-222c0 -50.667 -11.167 -87.167 -33.5 -109.5s-59.166 -33.5 -110.499 -33.5h-44c-51.333 0 -88.166 11 -110.499 33s-33.5 58.667 -33.5 110z" />
    <glyph glyph-name="oacute" unicode="&#xf3;" 
d="M133 530l36 106h107l-36 -106h-107zM216 362c0 3.33301 -1.66699 5 -5 5h-50c-3.33301 0 -5 -1.66699 -5 -5v-232c0 -3.33301 1.66699 -5 5 -5h50c3.33301 0 5 1.66699 5 5v232zM20 135v222c0 51.333 11.167 88 33.5 110s59.166 33 110.499 33h44
c51.333 0 88.166 -11 110.499 -33s33.5 -58.667 33.5 -110v-222c0 -50.667 -11.167 -87.167 -33.5 -109.5s-59.166 -33.5 -110.499 -33.5h-44c-51.333 0 -88.166 11 -110.499 33s-33.5 58.667 -33.5 110z" />
    <glyph glyph-name="ocircumflex" unicode="&#xf4;" 
d="M216 362c0 3.33301 -1.66699 5 -5 5h-50c-3.33301 0 -5 -1.66699 -5 -5v-232c0 -3.33301 1.66699 -5 5 -5h50c3.33301 0 5 1.66699 5 5v232zM20 135v222c0 51.333 11.167 88 33.5 110s59.166 33 110.499 33h44c51.333 0 88.166 -11 110.499 -33s33.5 -58.667 33.5 -110
v-222c0 -50.667 -11.167 -87.167 -33.5 -109.5s-59.166 -33.5 -110.499 -33.5h-44c-51.333 0 -88.166 11 -110.499 33s-33.5 58.667 -33.5 110zM87 530l42 94h111l42 -94h-80l-17 39l-18 -39h-80z" />
    <glyph glyph-name="otilde" unicode="&#xf5;" 
d="M216 362c0 3.33301 -1.66699 5 -5 5h-50c-3.33301 0 -5 -1.66699 -5 -5v-232c0 -3.33301 1.66699 -5 5 -5h50c3.33301 0 5 1.66699 5 5v232zM20 135v222c0 51.333 11.167 88 33.5 110s59.166 33 110.499 33h44c51.333 0 88.166 -11 110.499 -33s33.5 -58.667 33.5 -110
v-222c0 -50.667 -11.167 -87.167 -33.5 -109.5s-59.166 -33.5 -110.499 -33.5h-44c-51.333 0 -88.166 11 -110.499 33s-33.5 58.667 -33.5 110zM277 631v-86c-7.33301 -11.333 -21 -17.5 -41 -18.5s-38.667 3.16699 -56 12.5c-14.667 8 -31.334 11 -50.001 9
s-31.667 -9 -39 -21v86c8 10.667 22 16.667 42 18s38.333 -2.66699 55 -12c15.333 -8.66699 32.333 -12 51 -10s31.334 9.33301 38.001 22z" />
    <glyph glyph-name="odieresis" unicode="&#xf6;" 
d="M195 538v97h98v-97h-98zM78 538v97h98v-97h-98zM216 362c0 3.33301 -1.66699 5 -5 5h-50c-3.33301 0 -5 -1.66699 -5 -5v-232c0 -3.33301 1.66699 -5 5 -5h50c3.33301 0 5 1.66699 5 5v232zM20 135v222c0 51.333 11.167 88 33.5 110s59.166 33 110.499 33h44
c51.333 0 88.166 -11 110.499 -33s33.5 -58.667 33.5 -110v-222c0 -50.667 -11.167 -87.167 -33.5 -109.5s-59.166 -33.5 -110.499 -33.5h-44c-51.333 0 -88.166 11 -110.499 33s-33.5 58.667 -33.5 110z" />
    <glyph glyph-name="divide" unicode="&#xf7;" horiz-adv-x="370" 
d="M134 397v103h103v-103h-103zM20 241v120l330 1v-121h-330zM134 103v103h103v-103h-103z" />
    <glyph glyph-name="oslash" unicode="&#xf8;" 
d="M216 362c0 3.33301 -1.66699 5 -5 5h-50c-3.33301 0 -5 -1.66699 -5 -5v-232c0 -3.33301 1.66699 -5 5 -5h50c3.33301 0 5 1.66699 5 5v232zM20 135v222c0 51.333 11.167 88 33.5 110s59.166 33 110.499 33h44c51.333 0 88.166 -11 110.499 -33s33.5 -58.667 33.5 -110
v-222c0 -50.667 -11.167 -87.167 -33.5 -109.5s-59.166 -33.5 -110.499 -33.5h-44c-51.333 0 -88.166 11 -110.499 33s-33.5 58.667 -33.5 110zM74.2139 -36.9209l45.0889 575.327h60.2578l-45.0879 -575.327h-60.2588z" />
    <glyph glyph-name="ugrave" unicode="&#xf9;" horiz-adv-x="412" 
d="M153 530l-36 106h107l36 -106h-107zM236 0l-0.000976562 53l-36 -53h-16c-51.333 0 -88.166 11.167 -110.499 33.5s-33.5 58.833 -33.5 109.5v224h-20l10 133h146v-362c0 -3.33301 1.66699 -5 5 -5h55v367h136v-367h10l10 -133h-156z" />
    <glyph glyph-name="uacute" unicode="&#xfa;" horiz-adv-x="412" 
d="M163 530l36 106h107l-36 -106h-107zM236 0l-0.000976562 53l-36 -53h-16c-51.333 0 -88.166 11.167 -110.499 33.5s-33.5 58.833 -33.5 109.5v224h-20l10 133h146v-362c0 -3.33301 1.66699 -5 5 -5h55v367h136v-367h10l10 -133h-156z" />
    <glyph glyph-name="ucircumflex" unicode="&#xfb;" horiz-adv-x="412" 
d="M110 530l42 94h111l42 -94h-80l-17 39l-18 -39h-80zM236 0l-0.000976562 53l-36 -53h-16c-51.333 0 -88.166 11.167 -110.499 33.5s-33.5 58.833 -33.5 109.5v224h-20l10 133h146v-362c0 -3.33301 1.66699 -5 5 -5h55v367h136v-367h10l10 -133h-156z" />
    <glyph glyph-name="udieresis" unicode="&#xfc;" horiz-adv-x="392" 
d="M226 0l-0.000976562 53l-36 -53h-16c-51.333 0 -88.166 11.167 -110.499 33.5s-33.5 58.833 -33.5 109.5v224h-20l10 133h146v-362c0 -3.33301 1.66699 -5 5 -5h55v367h136v-367h10l10 -133h-156zM217.999 538v97h98v-97h-98zM100.999 538v97h98v-97h-98z" />
    <glyph glyph-name="yacute" unicode="&#xfd;" horiz-adv-x="392" 
d="M153 530l36 106h107l-36 -106h-107zM184 -1c-51.333 0 -88.1689 10.832 -110.502 32.499s-33.5 57.834 -33.5 108.501v226h-20l10 133h146v-367h60v367h136v-509c0 -50.667 -11.167 -87.167 -33.5 -109.5s-59.166 -33.5 -110.499 -33.5h-44
c-49.333 0 -85.666 11.333 -108.999 34s-35 57.667 -35 105v1h136v-27h60v92l-36 -53h-16z" />
    <glyph glyph-name="thorn" unicode="&#xfe;" horiz-adv-x="392" 
d="M40 -132l0.000976562 699h-20l10 133h146v-253l36 53h16c51.333 0 88.166 -11 110.499 -33s33.5 -58.667 33.5 -110v-214c0 -50.667 -10.833 -87.167 -32.5 -109.5s-57.5 -33.5 -107.5 -33.5h-9c-17.333 0 -33 3 -47 9v-141h-136zM231.001 133c3.33301 0 5 1.66699 5 5
v224c0 3.33301 -1.66699 5 -5 5h-55v-234h55z" />
    <glyph glyph-name="ydieresis" unicode="&#xff;" horiz-adv-x="392" 
d="M216 538v97h98v-97h-98zM99 538v97h98v-97h-98zM184 -1c-51.333 0 -88.1689 10.832 -110.502 32.499s-33.5 57.834 -33.5 108.501v226h-20l10 133h146v-367h60v367h136v-509c0 -50.667 -11.167 -87.167 -33.5 -109.5s-59.166 -33.5 -110.499 -33.5h-44
c-49.333 0 -85.666 11.333 -108.999 34s-35 57.667 -35 105v1h136v-27h60v92l-36 -53h-16z" />
    <glyph glyph-name="dotlessi" unicode="&#x131;" horiz-adv-x="192" 
d="M36 0v367h-16l10 133h142v-500h-136z" />
    <glyph glyph-name="OE" unicode="&#x152;" horiz-adv-x="517" 
d="M352 139v-6h145l-8 -133h-232c-14 -2.66699 -30.333 -4 -49 -4h-44c-51.333 0 -88.166 11.167 -110.499 33.5s-33.5 58.833 -33.5 109.5v422c0 51.333 11.167 88 33.5 110s59.166 33 110.499 33h44c18.667 0 35 -1.33301 49 -4h240l-8 -133h-137v-6v-144h123l-8 -133
h-115v-145zM161 571c-3.33301 0 -5 -1.66699 -5 -5v-432c0 -3.33301 1.66699 -5 5 -5h50c3.33301 0 5 1.66699 5 5v432c0 3.33301 -1.66699 5 -5 5h-50z" />
    <glyph glyph-name="oe" unicode="&#x153;" horiz-adv-x="568" 
d="M216 362c0 3.33301 -1.66699 5 -5 5h-50c-3.33301 0 -5 -1.66699 -5 -5v-232c0 -3.33301 1.66699 -5 5 -5h50c3.33301 0 5 1.66699 5 5v232zM412 362c0 3.33301 -1.66699 5 -5 5h-50c-3.33301 0 -5 -1.66699 -5 -5v-65h60v65zM20 135l-0.000976562 222
c0 51.333 11.167 88 33.5 110s59.166 33 110.499 33h44c30.667 0 56 -3.66699 76 -11c20 7.33301 45.333 11 76 11h44c51.333 0 88.166 -11 110.499 -33s33.5 -58.667 33.5 -110v-173h-196v-54c0 -3.33301 1.66699 -5 5 -5h50c3.33301 0 5 1.66699 5 5v33h136v-28
c0 -50.667 -11.167 -87.167 -33.5 -109.5s-59.166 -33.5 -110.499 -33.5h-44c-31.333 0 -56.666 3.66699 -75.999 11c-20 -7.33301 -45.333 -11 -76 -11h-44c-51.333 0 -88.166 11 -110.499 33s-33.5 58.667 -33.5 110z" />
    <glyph glyph-name="circumflex" unicode="&#x2c6;" horiz-adv-x="235" 
d="M20 730l42 94h111l42 -94h-80l-17 39l-18 -39h-80z" />
    <glyph glyph-name="ring" unicode="&#x2da;" horiz-adv-x="185" 
d="M92 716c-20 0 -37 6.83301 -51 20.5s-21 30.5 -21 50.5s7 37 21 51s31 21 51 21c20.667 0 38 -7 52 -21s21 -31 21 -51s-7 -36.833 -21 -50.5s-31.333 -20.5 -52 -20.5zM92 768c12.667 0 19.001 6.33301 19.001 19c0 5.33301 -1.83301 10 -5.5 14s-8.16699 6 -13.5 6
c-4.66699 0.666992 -8.83398 -1 -12.501 -5s-5.5 -9 -5.5 -15c0 -12.667 6 -19 18 -19z" />
    <glyph glyph-name="tilde" unicode="&#x2dc;" horiz-adv-x="226" 
d="M206 832v-86c-7.33301 -11.333 -21 -17.5 -41 -18.5s-38.667 3.16699 -56 12.5c-14.667 8 -31.334 11 -50.001 9s-31.667 -9 -39 -21v86c8 10.667 22 16.667 42 18s38.333 -2.66699 55 -12c15.333 -8.66699 32.333 -12 51 -10s31.334 9.33301 38.001 22z" />
    <glyph glyph-name="uni05B0" unicode="&#x5b0;" horiz-adv-x="0" 
d="M56 -124c-10 0 -18.5 3.33301 -25.5 10s-10.5 15.334 -10.5 26.001c0 10 3.5 18.5 10.5 25.5s15.5 10.5 25.5 10.5s18.5 -3.5 25.5 -10.5s10.5 -15.5 10.5 -25.5c0 -10.667 -3.5 -19.334 -10.5 -26.001s-15.5 -10 -25.5 -10zM56 -216c-10 0 -18.5 3.5 -25.5 10.5
s-10.5 15.5 -10.5 25.5c0 10.667 3.5 19.334 10.5 26.001s15.5 10 25.5 10s18.5 -3.33301 25.5 -10s10.5 -15.334 10.5 -26.001c0 -10 -3.5 -18.5 -10.5 -25.5s-15.5 -10.5 -25.5 -10.5z" />
    <glyph glyph-name="uni05B1" unicode="&#x5b1;" horiz-adv-x="0" 
d="M260 -128c-10 0 -18.5 3.33301 -25.5 10s-10.5 15.334 -10.5 26.001c0 10 3.5 18.5 10.5 25.5s15.5 10.5 25.5 10.5s18.5 -3.5 25.5 -10.5s10.5 -15.5 10.5 -25.5c0 -10.667 -3.5 -19.334 -10.5 -26.001s-15.5 -10 -25.5 -10zM56 -128c-10 0 -18.5 3.33301 -25.5 10
s-10.5 15.334 -10.5 26.001c0 10 3.5 18.5 10.5 25.5s15.5 10.5 25.5 10.5c10.667 0 19.334 -3.5 26.001 -10.5s10 -15.5 10 -25.5c0 -10.667 -3.33301 -19.334 -10 -26.001s-15.334 -10 -26.001 -10zM148 -128c-10.667 0 -19.334 3.33301 -26.001 10s-10 15.334 -10 26.001
c0 10 3.33301 18.5 10 25.5s15.334 10.5 26.001 10.5c10 0 18.5 -3.5 25.5 -10.5s10.5 -15.5 10.5 -25.5c0 -10.667 -3.5 -19.334 -10.5 -26.001s-15.5 -10 -25.5 -10zM102 -208c-10 0 -18.5 3.5 -25.5 10.5s-10.5 15.5 -10.5 25.5c0 10.667 3.5 19.334 10.5 26.001
s15.5 10 25.5 10s18.5 -3.33301 25.5 -10s10.5 -15.334 10.5 -26.001c0 -10 -3.5 -18.5 -10.5 -25.5s-15.5 -10.5 -25.5 -10.5zM260 -208c-10 0 -18.5 3.5 -25.5 10.5s-10.5 15.5 -10.5 25.5c0 10.667 3.5 19.334 10.5 26.001s15.5 10 25.5 10s18.5 -3.33301 25.5 -10
s10.5 -15.334 10.5 -26.001c0 -10 -3.5 -18.5 -10.5 -25.5s-15.5 -10.5 -25.5 -10.5z" />
    <glyph glyph-name="uni05B2" unicode="&#x5b2;" horiz-adv-x="0" 
d="M237 -124c-10 0 -18.5 3.33301 -25.5 10s-10.5 15.334 -10.5 26.001c0 10 3.5 18.5 10.5 25.5s15.5 10.5 25.5 10.5s18.5 -3.5 25.5 -10.5s10.5 -15.5 10.5 -25.5c0 -10.667 -3.5 -19.334 -10.5 -26.001s-15.5 -10 -25.5 -10zM30 -118v62h157v-62h-157zM237 -216
c-10 0 -18.5 3.5 -25.5 10.5s-10.5 15.5 -10.5 25.5c0 10.667 3.5 19.334 10.5 26.001s15.5 10 25.5 10s18.5 -3.33301 25.5 -10s10.5 -15.334 10.5 -26.001c0 -10 -3.5 -18.5 -10.5 -25.5s-15.5 -10.5 -25.5 -10.5z" />
    <glyph glyph-name="uni05B3" unicode="&#x5b3;" horiz-adv-x="0" 
d="M237 -124c-10 0 -18.5 3.33301 -25.5 10s-10.5 15.334 -10.5 26.001c0 10 3.5 18.5 10.5 25.5s15.5 10.5 25.5 10.5s18.5 -3.5 25.5 -10.5s10.5 -15.5 10.5 -25.5c0 -10.667 -3.5 -19.334 -10.5 -26.001s-15.5 -10 -25.5 -10zM30 -118v62h157v-62h-45v-38h-67v38h-45z
M237 -216c-10 0 -18.5 3.5 -25.5 10.5s-10.5 15.5 -10.5 25.5c0 10.667 3.5 19.334 10.5 26.001s15.5 10 25.5 10s18.5 -3.33301 25.5 -10s10.5 -15.334 10.5 -26.001c0 -10 -3.5 -18.5 -10.5 -25.5s-15.5 -10.5 -25.5 -10.5z" />
    <glyph glyph-name="uni05B4" unicode="&#x5b4;" horiz-adv-x="0" 
d="M56 -124c-10 0 -18.5 3.33301 -25.5 10s-10.5 15.334 -10.5 26.001c0 10 3.5 18.5 10.5 25.5s15.5 10.5 25.5 10.5s18.5 -3.5 25.5 -10.5s10.5 -15.5 10.5 -25.5c0 -10.667 -3.5 -19.334 -10.5 -26.001s-15.5 -10 -25.5 -10z" />
    <glyph glyph-name="uni05B5" unicode="&#x5b5;" horiz-adv-x="0" 
d="M148 -122c-10.667 0 -19.334 3.5 -26.001 10.5s-10 15.5 -10 25.5s3.33301 18.5 10 25.5s15.334 10.5 26.001 10.5c10 0 18.5 -3.5 25.5 -10.5s10.5 -15.5 10.5 -25.5s-3.5 -18.5 -10.5 -25.5s-15.5 -10.5 -25.5 -10.5zM56 -122c-10 0 -18.5 3.5 -25.5 10.5
s-10.5 15.5 -10.5 25.5s3.5 18.5 10.5 25.5s15.5 10.5 25.5 10.5c10.667 0 19.334 -3.5 26.001 -10.5s10 -15.5 10 -25.5s-3.33301 -18.5 -10 -25.5s-15.334 -10.5 -26.001 -10.5z" />
    <glyph glyph-name="uni05B6" unicode="&#x5b6;" horiz-adv-x="0" 
d="M148 -128c-10.667 0 -19.334 3.33301 -26.001 10s-10 15.334 -10 26.001c0 10 3.33301 18.5 10 25.5s15.334 10.5 26.001 10.5c10 0 18.5 -3.5 25.5 -10.5s10.5 -15.5 10.5 -25.5c0 -10.667 -3.5 -19.334 -10.5 -26.001s-15.5 -10 -25.5 -10zM56 -128
c-10 0 -18.5 3.33301 -25.5 10s-10.5 15.334 -10.5 26.001c0 10 3.5 18.5 10.5 25.5s15.5 10.5 25.5 10.5c10.667 0 19.334 -3.5 26.001 -10.5s10 -15.5 10 -25.5c0 -10.667 -3.33301 -19.334 -10 -26.001s-15.334 -10 -26.001 -10zM102 -208c-10 0 -18.5 3.5 -25.5 10.5
s-10.5 15.5 -10.5 25.5c0 10.667 3.5 19.334 10.5 26.001s15.5 10 25.5 10s18.5 -3.33301 25.5 -10s10.5 -15.334 10.5 -26.001c0 -10 -3.5 -18.5 -10.5 -25.5s-15.5 -10.5 -25.5 -10.5z" />
    <glyph glyph-name="uni05B7" unicode="&#x5b7;" horiz-adv-x="0" 
d="M20 -118v62h157v-62h-157z" />
    <glyph glyph-name="uni05B8" unicode="&#x5b8;" horiz-adv-x="0" 
d="M20 -118v62h157v-62h-45v-38h-67v38h-45z" />
    <glyph glyph-name="uni05B9" unicode="&#x5b9;" horiz-adv-x="0" 
d="M56 628c-10 0 -18.5 3.66699 -25.5 11s-10.5 15.666 -10.5 24.999c0 10 3.5 18.5 10.5 25.5s15.5 10.5 25.5 10.5s18.5 -3.5 25.5 -10.5s10.5 -15.5 10.5 -25.5c0 -9.33301 -3.5 -17.666 -10.5 -24.999s-15.5 -11 -25.5 -11z" />
    <glyph glyph-name="uni05BA" unicode="&#x5ba;" horiz-adv-x="0" 
d="M56 628c-10 0 -18.5 3.66699 -25.5 11s-10.5 15.666 -10.5 24.999c0 10 3.5 18.5 10.5 25.5s15.5 10.5 25.5 10.5s18.5 -3.5 25.5 -10.5s10.5 -15.5 10.5 -25.5c0 -9.33301 -3.5 -17.666 -10.5 -24.999s-15.5 -11 -25.5 -11z" />
    <glyph glyph-name="uni05BB" unicode="&#x5bb;" horiz-adv-x="0" 
d="M237 -114c-10 0 -18.5 3.33301 -25.5 10s-10.5 15.334 -10.5 26.001c0 10 3.5 18.5 10.5 25.5s15.5 10.5 25.5 10.5s18.5 -3.5 25.5 -10.5s10.5 -15.5 10.5 -25.5c0 -10.667 -3.5 -19.334 -10.5 -26.001s-15.5 -10 -25.5 -10zM297 -171c-10 0 -18.5 3.50098 -25.5 10.501
s-10.5 15.5 -10.5 25.5c0 10.667 3.5 19.334 10.5 26.001s15.5 10 25.5 10s18.5 -3.33301 25.5 -10s10.5 -15.334 10.5 -26.001s-3.5 -19.334 -10.5 -26.001s-15.5 -10 -25.5 -10zM357 -227.999c-10 0 -18.5 3.50098 -25.5 10.501s-10.5 15.5 -10.5 25.5
c0 10.667 3.5 19.334 10.5 26.001s15.5 10 25.5 10s18.5 -3.33301 25.5 -10s10.5 -15.334 10.5 -26.001s-3.5 -19.334 -10.5 -26.001s-15.5 -10 -25.5 -10z" />
    <glyph glyph-name="uni05BC" unicode="&#x5bc;" horiz-adv-x="0" 
d="M46 264c-10 0 -18.5 3.33301 -25.5 10s-10.5 15.334 -10.5 26.001c0 10 3.5 18.5 10.5 25.5s15.5 10.5 25.5 10.5s18.5 -3.5 25.5 -10.5s10.5 -15.5 10.5 -25.5c0 -10.667 -3.5 -19.334 -10.5 -26.001s-15.5 -10 -25.5 -10z" />
    <glyph glyph-name="uni05BE" unicode="&#x5be;" horiz-adv-x="280" 
d="M20 487v113h240v-113h-240z" />
    <glyph glyph-name="uni05BF" unicode="&#x5bf;" horiz-adv-x="0" 
d="M20 641v62h157v-62h-157z" />
    <glyph glyph-name="uni05C1" unicode="&#x5c1;" horiz-adv-x="0" 
d="M50 628c-10 0 -18.5 3.66699 -25.5 11s-10.5 15.666 -10.5 24.999c0 10 3.5 18.5 10.5 25.5s15.5 10.5 25.5 10.5s18.5 -3.5 25.5 -10.5s10.5 -15.5 10.5 -25.5c0 -9.33301 -3.5 -17.666 -10.5 -24.999s-15.5 -11 -25.5 -11z" />
    <glyph glyph-name="uni05C2" unicode="&#x5c2;" horiz-adv-x="0" 
d="M56 628c-10 0 -18.5 3.66699 -25.5 11s-10.5 15.666 -10.5 24.999c0 10 3.5 18.5 10.5 25.5s15.5 10.5 25.5 10.5s18.5 -3.5 25.5 -10.5s10.5 -15.5 10.5 -25.5c0 -9.33301 -3.5 -17.666 -10.5 -24.999s-15.5 -11 -25.5 -11z" />
    <glyph glyph-name="uni05C7" unicode="&#x5c7;" horiz-adv-x="0" 
d="M20 -118v62h157v-62h-45v-38h-67v38h-45z" />
    <glyph glyph-name="uni05D0" unicode="&#x5d0;" horiz-adv-x="443" 
d="M41 1l0.000976562 465.999h-21l16 133h177l86 -247c2 0.666992 3 2.33398 3 5.00098v109h-28l16 133h133v-277c0 -26 -7.33301 -47.167 -22 -63.5s-34.334 -25.833 -59.001 -28.5l81 -231h-136l-120 337l-4 -336h-122z" />
    <glyph glyph-name="uni05D1" unicode="&#x5d1;" horiz-adv-x="345" 
d="M325 133v-133h-305v133h129v334h-129l22 133h243v-467h40z" />
    <glyph glyph-name="uni05D2" unicode="&#x5d2;" horiz-adv-x="301" 
d="M61 600h220v-600h-124v236h-18c-3.33301 0 -5 -1.66699 -5 -5v-231h-114v266c0 28 8.66699 50.5 26 67.5s40 25.5 68 25.5h43v108h-118z" />
    <glyph glyph-name="uni05D3" unicode="&#x5d3;" horiz-adv-x="366" 
d="M150 0v386c0 34 11.333 61 34 81h-164l22 133h304v-133h-60v-467h-136z" />
    <glyph glyph-name="uni05D4" unicode="&#x5d4;" horiz-adv-x="366" 
d="M210 0v467h-190l22 133h304v-600h-136zM20 0v413h136v-413h-136z" />
    <glyph glyph-name="uni05D5" unicode="&#x5d5;" horiz-adv-x="217" 
d="M197 600v-600h-136v467h-41l22 133h155z" />
    <glyph glyph-name="uni05D6" unicode="&#x5d6;" horiz-adv-x="228" 
d="M208 600v-133h-51c22.667 -20 34 -47 34 -81v-386h-136v467h-45l22 133h176z" />
    <glyph glyph-name="uni05D7" unicode="&#x5d7;" horiz-adv-x="387" 
d="M367 600v-600h-136v467h-48v-467h-136v467h-27l22 133h325z" />
    <glyph glyph-name="uni05D8" unicode="&#x5d8;" horiz-adv-x="401" 
d="M381 93c0 -28 -8.66699 -50.5 -26 -67.5s-40 -25.5 -68 -25.5h-241v467h-26l22 133h140v-467h58c3.33301 0 5 1.66699 5 5v329h-43l22 133h157v-507z" />
    <glyph glyph-name="uni05D9" unicode="&#x5d9;" horiz-adv-x="217" 
d="M61 220v247h-41l22 133h155v-380h-136z" />
    <glyph glyph-name="uni05DA" unicode="&#x5da;" horiz-adv-x="305" 
d="M285 600v-700h-120v567h-145l26 133h239z" />
    <glyph glyph-name="uni05DB" unicode="&#x5db;" horiz-adv-x="335" 
d="M20 0v133h154c3.33301 0 5 1.66699 5 5v329h-159l22 133h273v-507c0 -28 -8.66699 -50.5 -26 -67.5s-40 -25.5 -68 -25.5h-201z" />
    <glyph glyph-name="uni05DC" unicode="&#x5dc;" horiz-adv-x="345" 
d="M20 657h136v-57h169v-360c0 -4.66699 -1.66699 -12 -5 -22l-77 -218h-136l78 218c2.66699 8 4 15.333 4 22v227h-169v190z" />
    <glyph glyph-name="uni05DD" unicode="&#x5dd;" horiz-adv-x="390" 
d="M51 0v467h-31l26 133h324v-600h-319zM171 133h79v334h-79v-334z" />
    <glyph glyph-name="uni05DE" unicode="&#x5de;" horiz-adv-x="397" 
d="M42 0l0.000976562 467h-22l10 133h148v-53l36 53h19c51.333 0 88.166 -11 110.499 -33s33.5 -58.667 33.5 -110v-457h-168v133h32v329c0 3.33301 -1.66699 5 -5 5h-58v-467h-136z" />
    <glyph glyph-name="uni05DF" unicode="&#x5df;" horiz-adv-x="217" 
d="M61 -100v567h-41l22 133h155v-700h-136z" />
    <glyph glyph-name="uni05E0" unicode="&#x5e0;" horiz-adv-x="227" 
d="M20 0v133h51v334h-41l22 133h155v-600h-187z" />
    <glyph glyph-name="uni05E1" unicode="&#x5e1;" horiz-adv-x="404" 
d="M384 600v-507c0 -28 -8.66699 -50.5 -26 -67.5s-40 -25.5 -68 -25.5h-243v467h-27l22 133h342zM248 138v329h-65v-334h60c3.33301 0 5 1.66699 5 5z" />
    <glyph glyph-name="uni05E2" unicode="&#x5e2;" horiz-adv-x="417" 
d="M397 93c0 -28 -8.66699 -50.5 -26 -67.5s-40 -25.5 -68 -25.5h-283v133h50v334h-34l22 133h148v-467h50c3.33301 0 5 1.66699 5 5v329h-37l22 133h151v-507z" />
    <glyph glyph-name="uni05E3" unicode="&#x5e3;" horiz-adv-x="402" 
d="M47 210v257h-27l22 133h340v-700h-136v567h-63v-124h39l-8 -133h-167z" />
    <glyph glyph-name="uni05E4" unicode="&#x5e4;" horiz-adv-x="402" 
d="M47 0v133h194c3.33301 0 5 1.66699 5 5v329h-63v-124h39l-8 -133h-167v257h-27l22 133h340v-507c0 -28 -8.66699 -50.5 -26 -67.5s-40 -25.5 -68 -25.5h-241z" />
    <glyph glyph-name="uni05E5" unicode="&#x5e5;" horiz-adv-x="394" 
d="M197 600v-292h51c3.33301 0 5 1.66699 5 5v154h-34l22 133h133v-327c0 -28 -8.66699 -50.5 -26 -67.5s-40 -25.5 -68 -25.5h-83v-280h-136v567h-41l22 133h155z" />
    <glyph glyph-name="uni05E6" unicode="&#x5e6;" 
d="M30 133h164.998l-142 334h-39l11 67v0v0l11 66h108l43.5 -110.5l48.5 -121.5v99h-28l16 133h128v-277c0 -22.667 -5.66699 -41.667 -17 -57s-26.666 -26 -45.999 -32l21 -52.5l19 -48.5c15.333 -40 15.333 -72.167 0 -96.5s-43.666 -36.5 -84.999 -36.5h-214v133z" />
    <glyph glyph-name="uni05E7" unicode="&#x5e7;" horiz-adv-x="355" 
d="M20 424h136v-315l39 109c2.66699 8 4 15.333 4 22v227h-179v133h315v-360c0 -4.66699 -1.66699 -12 -5 -22l-77 -218h-97v-100h-136v524z" />
    <glyph glyph-name="uni05E8" unicode="&#x5e8;" horiz-adv-x="336" 
d="M316 600v-600h-136v467h-160l22 133h274z" />
    <glyph glyph-name="uni05E9" unicode="&#x5e9;" horiz-adv-x="540" 
d="M158 600l-0.000976562 -467h57v334h-34l22 133h138v-467h48c3.33301 0 5 1.66699 5 5v329h-34l22 133h138v-507c0 -28 -7.66699 -50.5 -23 -67.5s-35.666 -25.5 -60.999 -25.5h-404v467h-22l22 133h126z" />
    <glyph glyph-name="uni05EA" unicode="&#x5ea;" horiz-adv-x="394" 
d="M30 467l22 133h322v-600h-136v467h-45v-374c0 -28 -8.66699 -50.5 -26 -67.5s-40 -25.5 -68 -25.5h-79v133h32c3.33301 0 5 1.66699 5 5v329h-27z" />
    <glyph glyph-name="gereshhb" unicode="&#x5f3;" horiz-adv-x="147" 
d="M0 467l37 190h110l-37 -190h-110z" />
    <glyph glyph-name="gershayimhb" unicode="&#x5f4;" horiz-adv-x="285" 
d="M138 467l37 190h110l-37 -190h-110zM0 467l37 190h110l-37 -190h-110z" />
    <glyph glyph-name="endash" unicode="&#x2013;" horiz-adv-x="426" 
d="M20 241v120l386 1v-121h-386z" />
    <glyph glyph-name="emdash" unicode="&#x2014;" horiz-adv-x="513" 
d="M20 245v113h473v-113h-473z" />
    <glyph glyph-name="quoteleft" unicode="&#x2018;" horiz-adv-x="147" 
d="M0 467l37 190h110l-37 -190h-110z" />
    <glyph glyph-name="quoteright" unicode="&#x2019;" horiz-adv-x="147" 
d="M0 467l37 190h110l-37 -190h-110z" />
    <glyph glyph-name="quotesinglbase" unicode="&#x201a;" horiz-adv-x="272" 
d="M10 -63l32 156h100l-32 -156h-100z" />
    <glyph glyph-name="quotedblleft" unicode="&#x201c;" horiz-adv-x="167" 
d="M10 467l37 190h110l-37 -190h-110z" />
    <glyph glyph-name="quotedblright" unicode="&#x201d;" horiz-adv-x="167" 
d="M10 467l37 190h110l-37 -190h-110z" />
    <glyph glyph-name="quotedblbase" unicode="&#x201e;" horiz-adv-x="297" 
d="M20 -63l32 156h100l-32 -156h-100zM145 -63l32 156h100l-32 -156h-100z" />
    <glyph glyph-name="bullet" unicode="&#x2022;" horiz-adv-x="260" 
d="M130 188c-30.667 0 -56.667 10.832 -78 32.499s-32 47.834 -32 78.501c0 20 5 38.333 15 55s23.333 30 40 40s35 15 55 15s38.333 -5 55 -15s30 -23.333 40 -40s15 -35 15 -55s-5 -38.5 -15 -55.5s-23.333 -30.5 -40 -40.5s-35 -15 -55 -15z" />
    <glyph glyph-name="ellipsis" unicode="&#x2026;" horiz-adv-x="429" 
d="M20 0v103h103v-103h-103zM306 0v103h103v-103h-103zM163 0v103h103v-103h-103z" />
    <glyph glyph-name="guilsinglleft" unicode="&#x2039;" horiz-adv-x="259" 
d="M239 20l-219 210v38l219 210v-140l-96 -89l96 -89v-140z" />
    <glyph glyph-name="guilsinglright" unicode="&#x203a;" horiz-adv-x="259" 
d="M20 20v140l96 89l-96 89v140l219 -210v-38z" />
    <glyph glyph-name="fraction" unicode="&#x2044;" horiz-adv-x="560" 
d="M30 0l376 600h134l-377 -600h-133z" />
    <glyph glyph-name="uni2074" unicode="&#x2074;" horiz-adv-x="281" 
d="M137 300v70h15v21h-71c-18.667 0 -34.167 6 -46.5 18s-16.833 28 -13.5 48l24 143h90l-16 -119h33v119h95v-119h14v-90h-14v-21h14v-70h-124z" />
    <glyph glyph-name="uni20AA" unicode="&#x20aa;" horiz-adv-x="652" 
d="M183 0v333.001h123v-210h198c3.33301 0 5 1.66699 5 5v372h123v-407c0 -26.667 -8.83301 -48.834 -26.5 -66.501s-40.167 -26.5 -67.5 -26.5h-355zM20 0.000976562v500h449v-331h-123v208h-203v-377h-123z" />
    <glyph glyph-name="Euro" unicode="&#x20ac;" horiz-adv-x="427" 
d="M10 204l14 78h21v29h-34l14 78h20v68c0 51.333 11.167 88 33.5 110s59.166 33 110.499 33h74c51.333 0 88.166 -11 110.499 -33s33.5 -58.667 33.5 -110v-142l-136 15v132c0 3.33301 -1.66699 5 -5 5h-80c-3.33301 0 -5 -1.66699 -5 -5v-73h61l-14 -78h-47v-29h60
l-14 -78h-46v-74c0 -3.33301 1.66699 -5 5 -5h80c3.33301 0 5 1.66699 5 5v97h136v-92c0 -50.667 -11.167 -87.167 -33.5 -109.5s-59.166 -33.5 -110.499 -33.5h-74c-51.333 0 -88.166 11.167 -110.499 33.5s-33.5 58.833 -33.5 109.5v69h-35z" />
    <glyph glyph-name="u20BF" unicode="&#x20bf;" horiz-adv-x="347" 
d="M110 -40v40h-90v600h1v1h89v39h95v-39h1c27.333 0 49.833 -8.66699 67.5 -26s26.5 -39.666 26.5 -66.999v-148c18 -18 27 -40.333 27 -67v-200c0 -26.667 -8.83301 -48.834 -26.5 -66.501s-40.167 -26.5 -67.5 -26.5h-28v-40h-95zM171 478h-37v-91h37
c3.33301 0 5 1.66699 5 5v81c0 3.33301 -1.66699 5 -5 5zM198 263h-64v-140h64c3.33301 0 5 1.66699 5 5v130c0 3.33301 -1.66699 5 -5 5z" />
    <glyph glyph-name="trademark" unicode="&#x2122;" horiz-adv-x="866" 
d="M128 330v237h-108v133h351v-133h-107v-237h-136zM413 330v237h-19l14 133h193l28 -184l29 184h188v-370h-136v176l-33 -136h-95l-33 136v-176h-136z" />
    <glyph glyph-name="arrowleft" unicode="&#x2190;" horiz-adv-x="448" 
d="M214 107l-194 194l194 194l78 -77l-41 -41h177v-153h-176l40 -40z" />
    <glyph glyph-name="arrowup" unicode="&#x2191;" horiz-adv-x="428" 
d="M137 117v176l-40 -40l-77 78l194 194l194 -194l-77 -78l-41 41v-177h-153z" />
    <glyph glyph-name="arrowright" unicode="&#x2192;" horiz-adv-x="448" 
d="M20 224v153h177l-41 41l78 77l194 -194l-194 -194l-78 77l40 40h-176z" />
    <glyph glyph-name="arrowdown" unicode="&#x2193;" horiz-adv-x="428" 
d="M214 97l-194 194l77 78l40 -40v176h153v-177l41 41l77 -78z" />
    <glyph glyph-name="uni2196" unicode="&#x2196;" horiz-adv-x="383" 
d="M130 183l-110 1v274h275l1 -110h-56l123 -124l-108 -108l-125 125v-58z" />
    <glyph glyph-name="uni2197" unicode="&#x2197;" horiz-adv-x="383" 
d="M128 116l-108 108l123 124h-56l1 110h275v-274l-110 -1v58z" />
    <glyph glyph-name="uni2198" unicode="&#x2198;" horiz-adv-x="383" 
d="M88 116l-1 110h56l-123 124l108 108l125 -125v58l110 -1v-274h-275z" />
    <glyph glyph-name="uni2199" unicode="&#x2199;" horiz-adv-x="383" 
d="M20 116v274l110 1v-58l125 125l108 -108l-123 -124h56l-1 -110h-275z" />
    <glyph glyph-name="product" unicode="&#x220f;" horiz-adv-x="556" 
d="M80 -100v664h-60v136h516v-136h-60v-664h-136v664h-124v-664h-136z" />
    <glyph glyph-name="minus" unicode="&#x2212;" horiz-adv-x="280" 
d="M0 244v113h280v-113h-280z" />
    <glyph glyph-name="uni2215" unicode="&#x2215;" horiz-adv-x="270" 
d="M10 -67l107 757h143l-107 -757h-143z" />
    <glyph glyph-name="radical" unicode="&#x221a;" horiz-adv-x="393" 
d="M126 -98l-71 361h-35v129h138l36 -202l106 610h193v-133h-89l-142 -765h-136z" />
    <glyph glyph-name="notequal" unicode="&#x2260;" horiz-adv-x="290" 
d="M62 135l6 34h-38v120h61l5 25h-66v120h88l7 35h113l-6 -34h38v-121h-61l-5 -24h66v-121h-89l-6 -34h-113z" />
    <glyph glyph-name="uniFB2A" unicode="&#xfb2a;" horiz-adv-x="540" 
d="M158 600l-0.000976562 -467h57v334h-34l22 133h138v-467h48c3.33301 0 5 1.66699 5 5v329h-34l22 133h138v-507c0 -28 -7.66699 -50.5 -23 -67.5s-35.666 -25.5 -60.999 -25.5h-404v467h-22l22 133h126zM490.999 628c-10 0 -18.5 3.66699 -25.5 11
s-10.5 15.666 -10.5 24.999c0 10 3.5 18.5 10.5 25.5s15.5 10.5 25.5 10.5s18.5 -3.5 25.5 -10.5s10.5 -15.5 10.5 -25.5c0 -9.33301 -3.5 -17.666 -10.5 -24.999s-15.5 -11 -25.5 -11z" />
    <glyph glyph-name="uniFB2B" unicode="&#xfb2b;" horiz-adv-x="540" 
d="M158 600l-0.000976562 -467h57v334h-34l22 133h138v-467h48c3.33301 0 5 1.66699 5 5v329h-34l22 133h138v-507c0 -28 -7.66699 -50.5 -23 -67.5s-35.666 -25.5 -60.999 -25.5h-404v467h-22l22 133h126zM106.999 628c-10 0 -18.5 3.66699 -25.5 11
s-10.5 15.666 -10.5 24.999c0 10 3.5 18.5 10.5 25.5s15.5 10.5 25.5 10.5s18.5 -3.5 25.5 -10.5s10.5 -15.5 10.5 -25.5c0 -9.33301 -3.5 -17.666 -10.5 -24.999s-15.5 -11 -25.5 -11z" />
    <glyph glyph-name="i.001" horiz-adv-x="192" 
d="M36 0v367h-16l10 133h142v-500h-136z" />
    <glyph glyph-name="alef_shin" horiz-adv-x="804" 
d="M32 0v466.999h-22l22 133h126v-467h57v334h-34l22 133h138v-467h48c3.33301 0 5 1.66699 5 5v329h-34l22 133h186l86 -247c2 0.666992 3 2.33398 3 5.00098v109h-28l16 133h133v-277c0 -26 -7.33301 -47.167 -22 -63.5s-34.334 -25.833 -59.001 -28.5l81 -231h-136
l-122 341v-18v-230c0 -28 -7.66699 -50.5 -23 -67.5s-35.666 -25.5 -60.999 -25.5h-404z" />
    </font>
</defs>
</svg>
